<svg xmlns="http://www.w3.org/2000/svg" width="1280" height="800" viewBox="0 0 1280 800">
  <defs>
    <style>
      text { font-family: -apple-system, BlinkMacSystemFont, 'Segoe UI', sans-serif; }
    </style>
  </defs>
  <rect width="1280" height="800" fill="#080E1A"/>
  
    <rect x="0" y="0" width="1280" height="56" rx="0" fill="#080E1A"/>
  <rect x="0" y="55" width="1280" height="1" fill="rgba(255,255,255,0.08)"/>
  <!-- logo -->
  <rect x="16" y="14" width="28" height="28" rx="7" fill="#1B4FD8"/>
  <text x="50" y="34" font-size="15" fill="white" font-weight="700">Docuplete</text>
  <rect x="126" y="18" width="38" height="20" rx="4" fill="rgba(255,255,255,0.08)"/>
  <text x="145" y="32" font-size="10" fill="rgba(255,255,255,0.4)" font-weight="600" text-anchor="middle">Docs</text>
  <!-- search -->
  <rect x="256" y="12" width="320" height="32" rx="8" fill="rgba(255,255,255,0.05)" stroke="rgba(255,255,255,0.08)" stroke-width="1"/>
  <text x="276" y="32" font-size="13" fill="rgba(255,255,255,0.35)">Search docs…</text>
  <!-- cta -->
  <rect x="1132" y="13" width="132" height="30" rx="8" fill="#1B4FD8"/>
  <text x="1198" y="33" font-size="13" fill="white" font-weight="600" text-anchor="middle">Start free trial</text>
    <rect x="0" y="56" width="240" height="744" rx="0" fill="#0A1120"/>
  <rect x="239" y="56" width="1" height="744" fill="rgba(255,255,255,0.08)"/><text x="16" y="84" font-size="12" fill="rgba(255,255,255,0.55)" font-weight="700">Getting Started</text><text x="20" y="117" font-size="12" fill="rgba(255,255,255,0.35)" font-weight="normal">What is Docuplete?</text><text x="20" y="145" font-size="12" fill="rgba(255,255,255,0.35)" font-weight="normal">Quick Start</text><text x="20" y="173" font-size="12" fill="rgba(255,255,255,0.35)" font-weight="normal">Plans</text><text x="16" y="196" font-size="12" fill="rgba(255,255,255,0.55)" font-weight="700">Building a Package</text><text x="20" y="229" font-size="12" fill="rgba(255,255,255,0.35)" font-weight="normal">Uploading a PDF</text><text x="20" y="257" font-size="12" fill="rgba(255,255,255,0.35)" font-weight="normal">Adding &amp; Editing Fields</text><text x="20" y="285" font-size="12" fill="rgba(255,255,255,0.35)" font-weight="normal">Visual Mapper</text><text x="20" y="313" font-size="12" fill="rgba(255,255,255,0.35)" font-weight="normal">E-Sign Fields</text><text x="20" y="341" font-size="12" fill="rgba(255,255,255,0.35)" font-weight="normal">Single-line vs. Multiline</text><text x="16" y="364" font-size="12" fill="rgba(255,255,255,0.55)" font-weight="700">Batch CSV Import</text><text x="20" y="397" font-size="12" fill="rgba(255,255,255,0.35)" font-weight="normal">When to Use Batch</text><text x="20" y="425" font-size="12" fill="rgba(255,255,255,0.35)" font-weight="normal">Downloading Template</text><text x="20" y="453" font-size="12" fill="rgba(255,255,255,0.35)" font-weight="normal">Filling Out CSV</text><text x="20" y="481" font-size="12" fill="rgba(255,255,255,0.35)" font-weight="normal">Uploading &amp; Results</text><text x="20" y="509" font-size="12" fill="rgba(255,255,255,0.35)" font-weight="normal">Understanding Errors</text><text x="16" y="532" font-size="12" fill="rgba(255,255,255,0.55)" font-weight="700">Sessions Dashboard</text><text x="20" y="565" font-size="12" fill="rgba(255,255,255,0.35)" font-weight="normal">Interviews Tab</text><text x="20" y="593" font-size="12" fill="rgba(255,255,255,0.35)" font-weight="normal">Batch Runs Tab</text><text x="16" y="616" font-size="12" fill="rgba(255,255,255,0.55)" font-weight="700">Sending to Clients</text><text x="20" y="649" font-size="12" fill="rgba(255,255,255,0.35)" font-weight="normal">Generating a Session</text><text x="20" y="677" font-size="12" fill="rgba(255,255,255,0.35)" font-weight="normal">Client Experience</text><text x="20" y="705" font-size="12" fill="rgba(255,255,255,0.35)" font-weight="normal">E-Sign Verification</text><text x="16" y="728" font-size="12" fill="rgba(255,255,255,0.55)" font-weight="700">Account &amp; Settings</text><rect x="8" y="744" width="224" height="26" rx="8" fill="rgba(27,79,216,0.2)"/><text x="20" y="761" font-size="12" fill="#5B8DEF" font-weight="600">API Keys</text><text x="20" y="789" font-size="12" fill="rgba(255,255,255,0.35)" font-weight="normal">Branding</text>

    <text x="280" y="96" font-size="22" fill="rgba(255,255,255,0.85)" font-weight="700" text-anchor="start">API Keys</text>
    <text x="280" y="118" font-size="13" fill="rgba(255,255,255,0.55)" font-weight="normal" text-anchor="start">Manage API keys for programmatic access to Docuplete.</text>
    <rect x="1080" y="86" width="176" height="40" rx="10" fill="#1B4FD8"/>
    <text x="1168" y="111" font-size="13" fill="white" font-weight="600" text-anchor="middle">+ Generate New Key</text>

    <!-- enterprise callout -->
    <rect x="280" y="136" width="984" height="48" rx="8" fill="rgba(139,92,246,0.1)" stroke="rgba(139,92,246,0.2)" stroke-width="1"/>
    <text x="304" y="164" font-size="13" fill="#a78bfa" font-weight="normal" text-anchor="start">🔒  Enterprise feature — API access is available on the Enterprise plan ($3,000/mo)</text>

    <!-- keys table -->
    <rect x="280" y="200" width="984" height="584" rx="10" fill="#111827" stroke="rgba(255,255,255,0.08)" stroke-width="1"/>
    <rect x="280" y="200" width="984" height="36" rx="10" fill="#0D1829"/>
    <rect x="280" y="235" width="984" height="1" fill="rgba(255,255,255,0.08)"/>
    <text x="300" y="222" font-size="11" fill="rgba(255,255,255,0.35)" font-weight="600" text-anchor="start">Name</text>
<text x="480" y="222" font-size="11" fill="rgba(255,255,255,0.35)" font-weight="600" text-anchor="start">Type</text>
<text x="560" y="222" font-size="11" fill="rgba(255,255,255,0.35)" font-weight="600" text-anchor="start">Key</text>
<text x="780" y="222" font-size="11" fill="rgba(255,255,255,0.35)" font-weight="600" text-anchor="start">Created</text>
<text x="940" y="222" font-size="11" fill="rgba(255,255,255,0.35)" font-weight="600" text-anchor="start">Last used</text>
<text x="1160" y="222" font-size="11" fill="rgba(255,255,255,0.35)" font-weight="600" text-anchor="start"></text>

    <rect x="280" y="236" width="984" height="72" rx="0" fill="rgba(255,255,255,0.01)"/>
      <rect x="280" y="307" width="984" height="1" fill="rgba(255,255,255,0.08)"/>
      <text x="300" y="274" font-size="13" fill="rgba(255,255,255,0.85)" font-weight="600" text-anchor="start">CRM Integration</text>
      <rect x="480" y="262" width="44" height="22" rx="4" fill="rgba(34,197,94,0.12)"/><text x="502" y="277.5" font-size="11" fill="#22c55e" font-weight="600" text-anchor="middle">Live</text>
      <!-- key value with blur -->
      <rect x="560" y="262" width="196" height="22" rx="4" fill="#0F1A2E" stroke="rgba(255,255,255,0.08)" stroke-width="1"/>
      <text x="572" y="277" font-size="11" fill="rgba(255,255,255,0.35)" font-weight="normal" text-anchor="start">dp_live_a1b2c3d4…</text>
      <rect x="756" y="262" width="28" height="22" rx="4" fill="#0F1A2E"/>
      <text x="770" y="277" font-size="11" fill="#5B8DEF">⎘</text>
      <text x="780" y="274" font-size="12" fill="rgba(255,255,255,0.35)" font-weight="normal" text-anchor="start">Jan 15, 2026</text>
      <text x="940" y="274" font-size="12" fill="rgba(255,255,255,0.35)" font-weight="normal" text-anchor="start">May 3, 2026</text>
      <text x="1160" y="274" font-size="12" fill="#ef4444" font-weight="normal" text-anchor="start">Revoke</text>
<rect x="280" y="308" width="984" height="72" rx="0" fill="transparent"/>
      <rect x="280" y="379" width="984" height="1" fill="rgba(255,255,255,0.08)"/>
      <text x="300" y="346" font-size="13" fill="rgba(255,255,255,0.85)" font-weight="600" text-anchor="start">Automation Server</text>
      <rect x="480" y="334" width="44" height="22" rx="4" fill="rgba(34,197,94,0.12)"/><text x="502" y="349.5" font-size="11" fill="#22c55e" font-weight="600" text-anchor="middle">Live</text>
      <!-- key value with blur -->
      <rect x="560" y="334" width="196" height="22" rx="4" fill="#0F1A2E" stroke="rgba(255,255,255,0.08)" stroke-width="1"/>
      <text x="572" y="349" font-size="11" fill="rgba(255,255,255,0.35)" font-weight="normal" text-anchor="start">dp_live_e5f6g7h8…</text>
      <rect x="756" y="334" width="28" height="22" rx="4" fill="#0F1A2E"/>
      <text x="770" y="349" font-size="11" fill="#5B8DEF">⎘</text>
      <text x="780" y="346" font-size="12" fill="rgba(255,255,255,0.35)" font-weight="normal" text-anchor="start">Mar 2, 2026</text>
      <text x="940" y="346" font-size="12" fill="rgba(255,255,255,0.35)" font-weight="normal" text-anchor="start">May 1, 2026</text>
      <text x="1160" y="346" font-size="12" fill="#ef4444" font-weight="normal" text-anchor="start">Revoke</text>
<rect x="280" y="380" width="984" height="72" rx="0" fill="rgba(255,255,255,0.01)"/>
      <rect x="280" y="451" width="984" height="1" fill="rgba(255,255,255,0.08)"/>
      <text x="300" y="418" font-size="13" fill="rgba(255,255,255,0.85)" font-weight="600" text-anchor="start">Test Environment</text>
      <rect x="480" y="406" width="44" height="22" rx="4" fill="rgba(255,255,255,0.06)"/><text x="502" y="421.5" font-size="11" fill="rgba(255,255,255,0.35)" font-weight="600" text-anchor="middle">Test</text>
      <!-- key value with blur -->
      <rect x="560" y="406" width="196" height="22" rx="4" fill="#0F1A2E" stroke="rgba(255,255,255,0.08)" stroke-width="1"/>
      <text x="572" y="421" font-size="11" fill="rgba(255,255,255,0.35)" font-weight="normal" text-anchor="start">dp_test_i9j0k1l2…</text>
      <rect x="756" y="406" width="28" height="22" rx="4" fill="#0F1A2E"/>
      <text x="770" y="421" font-size="11" fill="#5B8DEF">⎘</text>
      <text x="780" y="418" font-size="12" fill="rgba(255,255,255,0.35)" font-weight="normal" text-anchor="start">Mar 2, 2026</text>
      <text x="940" y="418" font-size="12" fill="rgba(255,255,255,0.35)" font-weight="normal" text-anchor="start">Apr 28, 2026</text>
      <text x="1160" y="418" font-size="12" fill="#ef4444" font-weight="normal" text-anchor="start">Revoke</text>

    <!-- usage note -->
    <rect x="280" y="704" width="984" height="60" rx="8" fill="#111827" stroke="rgba(255,255,255,0.08)" stroke-width="1"/>
    <text x="304" y="728" font-size="12" fill="#5B8DEF" font-weight="600" text-anchor="start">Authorization: Bearer dp_live_a1b2c3d4…</text>
    <text x="304" y="748" font-size="12" fill="rgba(255,255,255,0.35)" font-weight="normal" text-anchor="start">Include this header in every API request. Rate limit: 1,000 req/min per organization.</text>
  
</svg>