<svg xmlns="http://www.w3.org/2000/svg" width="1280" height="800" viewBox="0 0 1280 800">
  <defs>
    <style>
      text { font-family: -apple-system, BlinkMacSystemFont, 'Segoe UI', sans-serif; }
    </style>
  </defs>
  <rect width="1280" height="800" fill="#080E1A"/>
  
    <rect x="0" y="0" width="1280" height="56" rx="0" fill="#080E1A"/>
  <rect x="0" y="55" width="1280" height="1" fill="rgba(255,255,255,0.08)"/>
  <!-- logo -->
  <rect x="16" y="14" width="28" height="28" rx="7" fill="#1B4FD8"/>
  <text x="50" y="34" font-size="15" fill="white" font-weight="700">Docuplete</text>
  <rect x="126" y="18" width="38" height="20" rx="4" fill="rgba(255,255,255,0.08)"/>
  <text x="145" y="32" font-size="10" fill="rgba(255,255,255,0.4)" font-weight="600" text-anchor="middle">Docs</text>
  <!-- search -->
  <rect x="256" y="12" width="320" height="32" rx="8" fill="rgba(255,255,255,0.05)" stroke="rgba(255,255,255,0.08)" stroke-width="1"/>
  <text x="276" y="32" font-size="13" fill="rgba(255,255,255,0.35)">Search docs…</text>
  <!-- cta -->
  <rect x="1132" y="13" width="132" height="30" rx="8" fill="#1B4FD8"/>
  <text x="1198" y="33" font-size="13" fill="white" font-weight="600" text-anchor="middle">Start free trial</text>
    <rect x="0" y="56" width="240" height="744" rx="0" fill="#0A1120"/>
  <rect x="239" y="56" width="1" height="744" fill="rgba(255,255,255,0.08)"/><text x="16" y="84" font-size="12" fill="rgba(255,255,255,0.55)" font-weight="700">Getting Started</text><text x="20" y="117" font-size="12" fill="rgba(255,255,255,0.35)" font-weight="normal">What is Docuplete?</text><text x="20" y="145" font-size="12" fill="rgba(255,255,255,0.35)" font-weight="normal">Quick Start</text><text x="20" y="173" font-size="12" fill="rgba(255,255,255,0.35)" font-weight="normal">Plans</text><text x="16" y="196" font-size="12" fill="rgba(255,255,255,0.55)" font-weight="700">Building a Package</text><text x="20" y="229" font-size="12" fill="rgba(255,255,255,0.35)" font-weight="normal">Uploading a PDF</text><text x="20" y="257" font-size="12" fill="rgba(255,255,255,0.35)" font-weight="normal">Adding &amp; Editing Fields</text><text x="20" y="285" font-size="12" fill="rgba(255,255,255,0.35)" font-weight="normal">Visual Mapper</text><text x="20" y="313" font-size="12" fill="rgba(255,255,255,0.35)" font-weight="normal">E-Sign Fields</text><text x="20" y="341" font-size="12" fill="rgba(255,255,255,0.35)" font-weight="normal">Single-line vs. Multiline</text><text x="16" y="364" font-size="12" fill="rgba(255,255,255,0.55)" font-weight="700">Batch CSV Import</text><text x="20" y="397" font-size="12" fill="rgba(255,255,255,0.35)" font-weight="normal">When to Use Batch</text><text x="20" y="425" font-size="12" fill="rgba(255,255,255,0.35)" font-weight="normal">Downloading Template</text><text x="20" y="453" font-size="12" fill="rgba(255,255,255,0.35)" font-weight="normal">Filling Out CSV</text><text x="20" y="481" font-size="12" fill="rgba(255,255,255,0.35)" font-weight="normal">Uploading &amp; Results</text><text x="20" y="509" font-size="12" fill="rgba(255,255,255,0.35)" font-weight="normal">Understanding Errors</text><text x="16" y="532" font-size="12" fill="rgba(255,255,255,0.55)" font-weight="700">Sessions Dashboard</text><text x="20" y="565" font-size="12" fill="rgba(255,255,255,0.35)" font-weight="normal">Interviews Tab</text><text x="20" y="593" font-size="12" fill="rgba(255,255,255,0.35)" font-weight="normal">Batch Runs Tab</text><text x="16" y="616" font-size="12" fill="rgba(255,255,255,0.55)" font-weight="700">Sending to Clients</text><text x="20" y="649" font-size="12" fill="rgba(255,255,255,0.35)" font-weight="normal">Generating a Session</text><text x="20" y="677" font-size="12" fill="rgba(255,255,255,0.35)" font-weight="normal">Client Experience</text><text x="20" y="705" font-size="12" fill="rgba(255,255,255,0.35)" font-weight="normal">E-Sign Verification</text><text x="16" y="728" font-size="12" fill="rgba(255,255,255,0.55)" font-weight="700">Account &amp; Settings</text><text x="20" y="761" font-size="12" fill="rgba(255,255,255,0.35)" font-weight="normal">API Keys</text><text x="20" y="789" font-size="12" fill="rgba(255,255,255,0.35)" font-weight="normal">Branding</text>

    <text x="280" y="96" font-size="22" fill="rgba(255,255,255,0.85)" font-weight="700" text-anchor="start">Batch Run In Progress</text>
    <text x="280" y="118" font-size="13" fill="rgba(255,255,255,0.55)" font-weight="normal" text-anchor="start">onboarding-may.csv  ·  New Client Intake  ·  Started May 5, 2026 at 10:42 AM</text>

    <!-- progress card -->
    <rect x="280" y="136" width="984" height="140" rx="10" fill="#111827" stroke="rgba(255,255,255,0.08)" stroke-width="1"/>
    <text x="304" y="172" font-size="18" fill="rgba(255,255,255,0.85)" font-weight="700" text-anchor="start">Processing…</text>
    <text x="304" y="194" font-size="14" fill="rgba(255,255,255,0.55)" font-weight="normal" text-anchor="start">87 of 312 rows completed</text>

    <!-- progress bar -->
    <rect x="304" y="212" width="920" height="12" rx="6" fill="rgba(255,255,255,0.06)"/>
    <rect x="304" y="212" width="258" height="12" rx="6" fill="#1B4FD8"/>

    <text x="304" y="244" font-size="12" fill="rgba(255,255,255,0.35)" font-weight="normal" text-anchor="start">28% complete  ·  Est. 2 min remaining</text>
    <rect x="1148" y="156" width="88" height="28" rx="6" fill="rgba(91,141,239,0.15)"/><text x="1192" y="174.5" font-size="11" fill="#5B8DEF" font-weight="600" text-anchor="middle">⟳ Processing</text>

    <!-- stats row -->
    <rect x="280" y="292" width="984" height="80" rx="10" fill="#111827" stroke="rgba(255,255,255,0.08)" stroke-width="1"/>
    <text x="304" y="324" font-size="11" fill="rgba(255,255,255,0.35)" font-weight="600" text-anchor="start">Total rows</text>
      <text x="304" y="352" font-size="22" fill="rgba(255,255,255,0.85)" font-weight="700" text-anchor="start">312</text>
<text x="524" y="324" font-size="11" fill="rgba(255,255,255,0.35)" font-weight="600" text-anchor="start">Completed</text>
      <text x="524" y="352" font-size="22" fill="#22c55e" font-weight="700" text-anchor="start">87</text>
<text x="744" y="324" font-size="11" fill="rgba(255,255,255,0.35)" font-weight="600" text-anchor="start">Remaining</text>
      <text x="744" y="352" font-size="22" fill="#5B8DEF" font-weight="700" text-anchor="start">225</text>
<text x="964" y="324" font-size="11" fill="rgba(255,255,255,0.35)" font-weight="600" text-anchor="start">Errors</text>
      <text x="964" y="352" font-size="22" fill="rgba(255,255,255,0.35)" font-weight="700" text-anchor="start">0</text>

    <!-- rows list (in progress) -->
    <text x="280" y="392" font-size="14" fill="rgba(255,255,255,0.85)" font-weight="600" text-anchor="start">Row Results</text>
    <rect x="280" y="412" width="984" height="372" rx="10" fill="#111827" stroke="rgba(255,255,255,0.08)" stroke-width="1"/>
    <rect x="280" y="412" width="984" height="36" rx="10" fill="#0D1829"/>
    <rect x="280" y="447" width="984" height="1" fill="rgba(255,255,255,0.08)"/>
    <text x="296" y="434" font-size="11" fill="rgba(255,255,255,0.35)" font-weight="600" text-anchor="start">Row</text>
<text x="344" y="434" font-size="11" fill="rgba(255,255,255,0.35)" font-weight="600" text-anchor="start">Client name</text>
<text x="720" y="434" font-size="11" fill="rgba(255,255,255,0.35)" font-weight="600" text-anchor="start">Status</text>
<text x="900" y="434" font-size="11" fill="rgba(255,255,255,0.35)" font-weight="600" text-anchor="start">Download</text>

    <rect x="280" y="448" width="984" height="52" rx="0" fill="rgba(255,255,255,0.01)"/>
      <rect x="280" y="499" width="984" height="1" fill="rgba(255,255,255,0.08)"/>
      <text x="296" y="478" font-size="12" fill="rgba(255,255,255,0.35)" font-weight="normal" text-anchor="start">1</text>
      <text x="344" y="478" font-size="13" fill="rgba(255,255,255,0.85)" font-weight="normal" text-anchor="start">John Smith</text>
      <rect x="720" y="464" width="88" height="22" rx="4" fill="rgba(34,197,94,0.12)"/><text x="764" y="479.5" font-size="11" fill="#22c55e" font-weight="600" text-anchor="middle">✓ Generated</text>
      <text x="900" y="478" font-size="12" fill="#5B8DEF">↓ PDF</text>
<rect x="280" y="500" width="984" height="52" rx="0" fill="transparent"/>
      <rect x="280" y="551" width="984" height="1" fill="rgba(255,255,255,0.08)"/>
      <text x="296" y="530" font-size="12" fill="rgba(255,255,255,0.35)" font-weight="normal" text-anchor="start">2</text>
      <text x="344" y="530" font-size="13" fill="rgba(255,255,255,0.85)" font-weight="normal" text-anchor="start">Jane Doe</text>
      <rect x="720" y="516" width="88" height="22" rx="4" fill="rgba(34,197,94,0.12)"/><text x="764" y="531.5" font-size="11" fill="#22c55e" font-weight="600" text-anchor="middle">✓ Generated</text>
      <text x="900" y="530" font-size="12" fill="#5B8DEF">↓ PDF</text>
<rect x="280" y="552" width="984" height="52" rx="0" fill="rgba(255,255,255,0.01)"/>
      <rect x="280" y="603" width="984" height="1" fill="rgba(255,255,255,0.08)"/>
      <text x="296" y="582" font-size="12" fill="rgba(255,255,255,0.35)" font-weight="normal" text-anchor="start">3</text>
      <text x="344" y="582" font-size="13" fill="rgba(255,255,255,0.85)" font-weight="normal" text-anchor="start">Robert Chen</text>
      <rect x="720" y="568" width="88" height="22" rx="4" fill="rgba(34,197,94,0.12)"/><text x="764" y="583.5" font-size="11" fill="#22c55e" font-weight="600" text-anchor="middle">✓ Generated</text>
      <text x="900" y="582" font-size="12" fill="#5B8DEF">↓ PDF</text>
<rect x="280" y="604" width="984" height="52" rx="0" fill="transparent"/>
      <rect x="280" y="655" width="984" height="1" fill="rgba(255,255,255,0.08)"/>
      <text x="296" y="634" font-size="12" fill="rgba(255,255,255,0.35)" font-weight="normal" text-anchor="start">4</text>
      <text x="344" y="634" font-size="13" fill="rgba(255,255,255,0.85)" font-weight="normal" text-anchor="start">Sarah Williams</text>
      <rect x="720" y="620" width="72" height="22" rx="4" fill="rgba(91,141,239,0.1)"/><text x="756" y="635.5" font-size="11" fill="#5B8DEF" font-weight="600" text-anchor="middle">Pending</text>
      
<rect x="280" y="656" width="984" height="52" rx="0" fill="rgba(255,255,255,0.01)"/>
      <rect x="280" y="707" width="984" height="1" fill="rgba(255,255,255,0.08)"/>
      <text x="296" y="686" font-size="12" fill="rgba(255,255,255,0.35)" font-weight="normal" text-anchor="start">5</text>
      <text x="344" y="686" font-size="13" fill="rgba(255,255,255,0.85)" font-weight="normal" text-anchor="start">Michael Brown</text>
      <rect x="720" y="672" width="72" height="22" rx="4" fill="rgba(91,141,239,0.1)"/><text x="756" y="687.5" font-size="11" fill="#5B8DEF" font-weight="600" text-anchor="middle">Pending</text>
      
  
</svg>