<svg xmlns="http://www.w3.org/2000/svg" width="1280" height="800" viewBox="0 0 1280 800">
  <defs>
    <style>
      text { font-family: -apple-system, BlinkMacSystemFont, 'Segoe UI', sans-serif; }
    </style>
  </defs>
  <rect width="1280" height="800" fill="#080E1A"/>
  
    <rect x="0" y="0" width="1280" height="56" rx="0" fill="#080E1A"/>
  <rect x="0" y="55" width="1280" height="1" fill="rgba(255,255,255,0.08)"/>
  <!-- logo -->
  <rect x="16" y="14" width="28" height="28" rx="7" fill="#1B4FD8"/>
  <text x="50" y="34" font-size="15" fill="white" font-weight="700">Docuplete</text>
  <rect x="126" y="18" width="38" height="20" rx="4" fill="rgba(255,255,255,0.08)"/>
  <text x="145" y="32" font-size="10" fill="rgba(255,255,255,0.4)" font-weight="600" text-anchor="middle">Docs</text>
  <!-- search -->
  <rect x="256" y="12" width="320" height="32" rx="8" fill="rgba(255,255,255,0.05)" stroke="rgba(255,255,255,0.08)" stroke-width="1"/>
  <text x="276" y="32" font-size="13" fill="rgba(255,255,255,0.35)">Search docs…</text>
  <!-- cta -->
  <rect x="1132" y="13" width="132" height="30" rx="8" fill="#1B4FD8"/>
  <text x="1198" y="33" font-size="13" fill="white" font-weight="600" text-anchor="middle">Start free trial</text>
    <rect x="0" y="56" width="240" height="744" rx="0" fill="#0A1120"/>
  <rect x="239" y="56" width="1" height="744" fill="rgba(255,255,255,0.08)"/><text x="16" y="84" font-size="12" fill="rgba(255,255,255,0.55)" font-weight="700">Getting Started</text><text x="20" y="117" font-size="12" fill="rgba(255,255,255,0.35)" font-weight="normal">What is Docuplete?</text><text x="20" y="145" font-size="12" fill="rgba(255,255,255,0.35)" font-weight="normal">Quick Start</text><text x="20" y="173" font-size="12" fill="rgba(255,255,255,0.35)" font-weight="normal">Plans</text><text x="16" y="196" font-size="12" fill="rgba(255,255,255,0.55)" font-weight="700">Building a Package</text><text x="20" y="229" font-size="12" fill="rgba(255,255,255,0.35)" font-weight="normal">Uploading a PDF</text><text x="20" y="257" font-size="12" fill="rgba(255,255,255,0.35)" font-weight="normal">Adding &amp; Editing Fields</text><text x="20" y="285" font-size="12" fill="rgba(255,255,255,0.35)" font-weight="normal">Visual Mapper</text><text x="20" y="313" font-size="12" fill="rgba(255,255,255,0.35)" font-weight="normal">E-Sign Fields</text><text x="20" y="341" font-size="12" fill="rgba(255,255,255,0.35)" font-weight="normal">Single-line vs. Multiline</text><text x="16" y="364" font-size="12" fill="rgba(255,255,255,0.55)" font-weight="700">Batch CSV Import</text><text x="20" y="397" font-size="12" fill="rgba(255,255,255,0.35)" font-weight="normal">When to Use Batch</text><text x="20" y="425" font-size="12" fill="rgba(255,255,255,0.35)" font-weight="normal">Downloading Template</text><text x="20" y="453" font-size="12" fill="rgba(255,255,255,0.35)" font-weight="normal">Filling Out CSV</text><text x="20" y="481" font-size="12" fill="rgba(255,255,255,0.35)" font-weight="normal">Uploading &amp; Results</text><rect x="8" y="492" width="224" height="26" rx="8" fill="rgba(27,79,216,0.2)"/><text x="20" y="509" font-size="12" fill="#5B8DEF" font-weight="600">Understanding Errors</text><text x="16" y="532" font-size="12" fill="rgba(255,255,255,0.55)" font-weight="700">Sessions Dashboard</text><text x="20" y="565" font-size="12" fill="rgba(255,255,255,0.35)" font-weight="normal">Interviews Tab</text><text x="20" y="593" font-size="12" fill="rgba(255,255,255,0.35)" font-weight="normal">Batch Runs Tab</text><text x="16" y="616" font-size="12" fill="rgba(255,255,255,0.55)" font-weight="700">Sending to Clients</text><text x="20" y="649" font-size="12" fill="rgba(255,255,255,0.35)" font-weight="normal">Generating a Session</text><text x="20" y="677" font-size="12" fill="rgba(255,255,255,0.35)" font-weight="normal">Client Experience</text><text x="20" y="705" font-size="12" fill="rgba(255,255,255,0.35)" font-weight="normal">E-Sign Verification</text><text x="16" y="728" font-size="12" fill="rgba(255,255,255,0.55)" font-weight="700">Account &amp; Settings</text><text x="20" y="761" font-size="12" fill="rgba(255,255,255,0.35)" font-weight="normal">API Keys</text><text x="20" y="789" font-size="12" fill="rgba(255,255,255,0.35)" font-weight="normal">Branding</text>

    <text x="280" y="96" font-size="22" fill="rgba(255,255,255,0.85)" font-weight="700" text-anchor="start">Batch Errors</text>
    <text x="280" y="118" font-size="13" fill="rgba(255,255,255,0.55)" font-weight="normal" text-anchor="start">onboarding-may.csv  ·  87 succeeded  ·  5 errors</text>

    <!-- error summary banner -->
    <rect x="280" y="136" width="984" height="60" rx="8" fill="rgba(245,158,11,0.12)" stroke="rgba(245,158,11,0.3)" stroke-width="1"/>
    <text x="304" y="165" font-size="14" fill="#f59e0b" font-weight="600">⚠ 5 rows failed to generate</text>
    <text x="304" y="183" font-size="12" fill="#f59e0b" font-weight="normal" text-anchor="start">Download the error report to fix and re-run only the failed rows.</text>
    <rect x="1052" y="146" width="172" height="36" rx="8" fill="rgba(245,158,11,0.15)" stroke="rgba(245,158,11,0.3)" stroke-width="1"/>
    <text x="1138" y="168" font-size="12" fill="#f59e0b" font-weight="600" text-anchor="middle">↓ Download Error CSV</text>

    <!-- table -->
    <rect x="280" y="212" width="984" height="572" rx="10" fill="#111827" stroke="rgba(255,255,255,0.08)" stroke-width="1"/>
    <rect x="280" y="212" width="984" height="36" rx="10" fill="#0D1829"/>
    <rect x="280" y="247" width="984" height="1" fill="rgba(255,255,255,0.08)"/>
    <text x="296" y="234" font-size="11" fill="rgba(255,255,255,0.35)" font-weight="600" text-anchor="start">Row</text>
<text x="344" y="234" font-size="11" fill="rgba(255,255,255,0.35)" font-weight="600" text-anchor="start">Client name</text>
<text x="540" y="234" font-size="11" fill="rgba(255,255,255,0.35)" font-weight="600" text-anchor="start">Issue type</text>
<text x="700" y="234" font-size="11" fill="rgba(255,255,255,0.35)" font-weight="600" text-anchor="start">Error message</text>

    <rect x="280" y="248" width="984" height="68" rx="0" fill="rgba(255,255,255,0.01)"/>
      <rect x="280" y="315" width="984" height="1" fill="rgba(255,255,255,0.08)"/>
      <text x="296" y="284" font-size="13" fill="rgba(255,255,255,0.35)" font-weight="normal" text-anchor="start">4</text>
      <text x="344" y="284" font-size="13" fill="rgba(255,255,255,0.85)" font-weight="600" text-anchor="start">Sarah Williams</text>
      <rect x="540" y="272" width="107" height="24" rx="6" fill="rgba(239,68,68,0.12)"/><text x="593.5" y="288.5" font-size="11" fill="#ef4444" font-weight="600" text-anchor="middle">Missing value</text>
      <text x="700" y="284" font-size="11" fill="rgba(255,255,255,0.55)" font-weight="normal" text-anchor="start">Required field blank: account_type</text>
<rect x="280" y="316" width="984" height="68" rx="0" fill="transparent"/>
      <rect x="280" y="383" width="984" height="1" fill="rgba(255,255,255,0.08)"/>
      <text x="296" y="352" font-size="13" fill="rgba(255,255,255,0.35)" font-weight="normal" text-anchor="start">7</text>
      <text x="344" y="352" font-size="13" fill="rgba(255,255,255,0.85)" font-weight="600" text-anchor="start">Thomas Ngyuen</text>
      <rect x="540" y="340" width="86" height="24" rx="6" fill="rgba(245,158,11,0.12)"/><text x="583" y="356.5" font-size="11" fill="#f59e0b" font-weight="600" text-anchor="middle">Bad format</text>
      <text x="700" y="352" font-size="11" fill="rgba(255,255,255,0.55)" font-weight="normal" text-anchor="start">Invalid date format: date_of_birth — expected YYYY-MM-DD</text>
<rect x="280" y="384" width="984" height="68" rx="0" fill="rgba(255,255,255,0.01)"/>
      <rect x="280" y="451" width="984" height="1" fill="rgba(255,255,255,0.08)"/>
      <text x="296" y="420" font-size="13" fill="rgba(255,255,255,0.35)" font-weight="normal" text-anchor="start">12</text>
      <text x="344" y="420" font-size="13" fill="rgba(255,255,255,0.85)" font-weight="600" text-anchor="start">Lisa Park</text>
      <rect x="540" y="408" width="86" height="24" rx="6" fill="rgba(139,92,246,0.15)"/><text x="583" y="424.5" font-size="11" fill="#a78bfa" font-weight="600" text-anchor="middle">Bad option</text>
      <text x="700" y="420" font-size="11" fill="rgba(255,255,255,0.55)" font-weight="normal" text-anchor="start">Option not found: account_type value 'individual' — check capitalization</text>
<rect x="280" y="452" width="984" height="68" rx="0" fill="transparent"/>
      <rect x="280" y="519" width="984" height="1" fill="rgba(255,255,255,0.08)"/>
      <text x="296" y="488" font-size="13" fill="rgba(255,255,255,0.35)" font-weight="normal" text-anchor="start">19</text>
      <text x="344" y="488" font-size="13" fill="rgba(255,255,255,0.85)" font-weight="600" text-anchor="start">David Torres</text>
      <rect x="540" y="476" width="107" height="24" rx="6" fill="rgba(239,68,68,0.12)"/><text x="593.5" y="492.5" font-size="11" fill="#ef4444" font-weight="600" text-anchor="middle">Missing value</text>
      <text x="700" y="488" font-size="11" fill="rgba(255,255,255,0.55)" font-weight="normal" text-anchor="start">Required field blank: annual_income</text>
<rect x="280" y="520" width="984" height="68" rx="0" fill="rgba(255,255,255,0.01)"/>
      <rect x="280" y="587" width="984" height="1" fill="rgba(255,255,255,0.08)"/>
      <text x="296" y="556" font-size="13" fill="rgba(255,255,255,0.35)" font-weight="normal" text-anchor="start">23</text>
      <text x="344" y="556" font-size="13" fill="rgba(255,255,255,0.85)" font-weight="600" text-anchor="start">Emma Davis</text>
      <rect x="540" y="544" width="72" height="24" rx="6" fill="rgba(245,158,11,0.12)"/><text x="576" y="560.5" font-size="11" fill="#f59e0b" font-weight="600" text-anchor="middle">Too long</text>
      <text x="700" y="556" font-size="11" fill="rgba(255,255,255,0.55)" font-weight="normal" text-anchor="start">Value too long: notes field exceeds 500 character limit</text>
  
</svg>