<svg xmlns="http://www.w3.org/2000/svg" width="1280" height="800" viewBox="0 0 1280 800">
  <defs>
    <style>
      text { font-family: -apple-system, BlinkMacSystemFont, 'Segoe UI', sans-serif; }
    </style>
  </defs>
  <rect width="1280" height="800" fill="#080E1A"/>
  
    <rect x="0" y="0" width="1280" height="56" rx="0" fill="#080E1A"/>
  <rect x="0" y="55" width="1280" height="1" fill="rgba(255,255,255,0.08)"/>
  <!-- logo -->
  <rect x="16" y="14" width="28" height="28" rx="7" fill="#1B4FD8"/>
  <text x="50" y="34" font-size="15" fill="white" font-weight="700">Docuplete</text>
  <rect x="126" y="18" width="38" height="20" rx="4" fill="rgba(255,255,255,0.08)"/>
  <text x="145" y="32" font-size="10" fill="rgba(255,255,255,0.4)" font-weight="600" text-anchor="middle">Docs</text>
  <!-- search -->
  <rect x="256" y="12" width="320" height="32" rx="8" fill="rgba(255,255,255,0.05)" stroke="rgba(255,255,255,0.08)" stroke-width="1"/>
  <text x="276" y="32" font-size="13" fill="rgba(255,255,255,0.35)">Search docs…</text>
  <!-- cta -->
  <rect x="1132" y="13" width="132" height="30" rx="8" fill="#1B4FD8"/>
  <text x="1198" y="33" font-size="13" fill="white" font-weight="600" text-anchor="middle">Start free trial</text>
    <rect x="0" y="56" width="240" height="744" rx="0" fill="#0A1120"/>
  <rect x="239" y="56" width="1" height="744" fill="rgba(255,255,255,0.08)"/><text x="16" y="84" font-size="12" fill="rgba(255,255,255,0.55)" font-weight="700">Getting Started</text><text x="20" y="117" font-size="12" fill="rgba(255,255,255,0.35)" font-weight="normal">What is Docuplete?</text><text x="20" y="145" font-size="12" fill="rgba(255,255,255,0.35)" font-weight="normal">Quick Start</text><text x="20" y="173" font-size="12" fill="rgba(255,255,255,0.35)" font-weight="normal">Plans</text><text x="16" y="196" font-size="12" fill="rgba(255,255,255,0.55)" font-weight="700">Building a Package</text><text x="20" y="229" font-size="12" fill="rgba(255,255,255,0.35)" font-weight="normal">Uploading a PDF</text><text x="20" y="257" font-size="12" fill="rgba(255,255,255,0.35)" font-weight="normal">Adding &amp; Editing Fields</text><text x="20" y="285" font-size="12" fill="rgba(255,255,255,0.35)" font-weight="normal">Visual Mapper</text><text x="20" y="313" font-size="12" fill="rgba(255,255,255,0.35)" font-weight="normal">E-Sign Fields</text><text x="20" y="341" font-size="12" fill="rgba(255,255,255,0.35)" font-weight="normal">Single-line vs. Multiline</text><text x="16" y="364" font-size="12" fill="rgba(255,255,255,0.55)" font-weight="700">Batch CSV Import</text><text x="20" y="397" font-size="12" fill="rgba(255,255,255,0.35)" font-weight="normal">When to Use Batch</text><text x="20" y="425" font-size="12" fill="rgba(255,255,255,0.35)" font-weight="normal">Downloading Template</text><text x="20" y="453" font-size="12" fill="rgba(255,255,255,0.35)" font-weight="normal">Filling Out CSV</text><text x="20" y="481" font-size="12" fill="rgba(255,255,255,0.35)" font-weight="normal">Uploading &amp; Results</text><text x="20" y="509" font-size="12" fill="rgba(255,255,255,0.35)" font-weight="normal">Understanding Errors</text><text x="16" y="532" font-size="12" fill="rgba(255,255,255,0.55)" font-weight="700">Sessions Dashboard</text><text x="20" y="565" font-size="12" fill="rgba(255,255,255,0.35)" font-weight="normal">Interviews Tab</text><text x="20" y="593" font-size="12" fill="rgba(255,255,255,0.35)" font-weight="normal">Batch Runs Tab</text><text x="16" y="616" font-size="12" fill="rgba(255,255,255,0.55)" font-weight="700">Sending to Clients</text><text x="20" y="649" font-size="12" fill="rgba(255,255,255,0.35)" font-weight="normal">Generating a Session</text><text x="20" y="677" font-size="12" fill="rgba(255,255,255,0.35)" font-weight="normal">Client Experience</text><text x="20" y="705" font-size="12" fill="rgba(255,255,255,0.35)" font-weight="normal">E-Sign Verification</text><text x="16" y="728" font-size="12" fill="rgba(255,255,255,0.55)" font-weight="700">Account &amp; Settings</text><text x="20" y="761" font-size="12" fill="rgba(255,255,255,0.35)" font-weight="normal">API Keys</text><rect x="8" y="772" width="224" height="26" rx="8" fill="rgba(27,79,216,0.2)"/><text x="20" y="789" font-size="12" fill="#5B8DEF" font-weight="600">Branding</text>

    <text x="280" y="96" font-size="22" fill="rgba(255,255,255,0.85)" font-weight="700" text-anchor="start">Organization Branding</text>
    <text x="280" y="118" font-size="13" fill="rgba(255,255,255,0.55)" font-weight="normal" text-anchor="start">Customize the client interview with your logo, colors, and messaging.</text>

    <!-- two column: settings left, preview right -->
    <rect x="280" y="136" width="480" height="648" rx="10" fill="#111827" stroke="rgba(255,255,255,0.08)" stroke-width="1"/>
    <rect x="780" y="136" width="484" height="648" rx="10" fill="#111827" stroke="rgba(255,255,255,0.08)" stroke-width="1"/>

    <!-- left: settings -->
    <text x="304" y="168" font-size="14" fill="rgba(255,255,255,0.85)" font-weight="600" text-anchor="start">Settings</text>

    <text x="304" y="200" font-size="11" fill="rgba(255,255,255,0.35)" font-weight="600" text-anchor="start">Logo</text>
    <rect x="304" y="208" width="200" height="60" rx="8" fill="#0F1A2E" stroke="rgba(255,255,255,0.08)" stroke-width="1"/>
    <rect x="324" y="222" width="80" height="32" rx="6" fill="rgba(27,79,216,0.2)"/>
    <text x="364" y="242" font-size="11" fill="#5B8DEF" text-anchor="middle">LOGO</text>
    <text x="416" y="228" font-size="11" fill="rgba(255,255,255,0.55)" font-weight="normal" text-anchor="start">acme-logo.svg</text>
    <text x="416" y="244" font-size="11" fill="#5B8DEF" font-weight="normal" text-anchor="start">Change</text>

    <text x="304" y="288" font-size="11" fill="rgba(255,255,255,0.35)" font-weight="600" text-anchor="start">Brand color</text>
    <rect x="304" y="296" width="200" height="36" rx="8" fill="#0F1A2E" stroke="rgba(255,255,255,0.08)" stroke-width="1"/>
    <rect x="316" y="306" width="24" height="16" rx="4" fill="#1B4FD8"/>
    <text x="348" y="319" font-size="12" fill="rgba(255,255,255,0.85)" font-weight="normal" text-anchor="start">#1B4FD8</text>

    <text x="304" y="352" font-size="11" fill="rgba(255,255,255,0.35)" font-weight="600" text-anchor="start">Interview header text</text>
    <rect x="304" y="360" width="400" height="36" rx="8" fill="#0F1A2E" stroke="rgba(255,255,255,0.08)" stroke-width="1"/>
    <text x="320" y="383" font-size="12" fill="rgba(255,255,255,0.85)" font-weight="normal" text-anchor="start">New Client Application</text>

    <text x="304" y="416" font-size="11" fill="rgba(255,255,255,0.35)" font-weight="600" text-anchor="start">Footer text</text>
    <rect x="304" y="424" width="400" height="60" rx="8" fill="#0F1A2E" stroke="rgba(255,255,255,0.08)" stroke-width="1"/>
    <text x="320" y="448" font-size="12" fill="rgba(255,255,255,0.85)" font-weight="normal" text-anchor="start">Questions? Call (555) 123-4567</text>
    <text x="320" y="468" font-size="12" fill="rgba(255,255,255,0.35)" font-weight="normal" text-anchor="start">Mon–Fri 9am–5pm ET</text>

    <text x="304" y="508" font-size="11" fill="rgba(255,255,255,0.35)" font-weight="600" text-anchor="start">Email sender name</text>
    <rect x="304" y="516" width="400" height="36" rx="8" fill="#0F1A2E" stroke="rgba(255,255,255,0.08)" stroke-width="1"/>
    <text x="320" y="539" font-size="12" fill="rgba(255,255,255,0.85)" font-weight="normal" text-anchor="start">Acme Financial Advisors</text>

    <rect x="304" y="728" width="200" height="40" rx="8" fill="#1B4FD8"/>
    <text x="404" y="752" font-size="13" fill="white" font-weight="600" text-anchor="middle">Save Changes</text>

    <!-- right: live preview -->
    <text x="804" y="168" font-size="14" fill="rgba(255,255,255,0.85)" font-weight="600" text-anchor="start">Live Preview</text>
    <rect x="804" y="192" width="444" height="576" rx="8" fill="#f8fafc"/>
    <rect x="804" y="192" width="444" height="44" rx="8" fill="white"/>
    <rect x="804" y="234" width="444" height="1" fill="#e5e7eb"/>
    <rect x="966" y="203" width="120" height="22" rx="4" fill="#eff6ff"/>
    <text x="1026" y="218" font-size="11" fill="#1d4ed8" font-weight="700" text-anchor="middle">Acme Financial</text>

    <!-- mini progress -->
    <rect x="804" y="235" width="444" height="4" rx="0" fill="#e5e7eb"/>
    <rect x="804" y="235" width="178" height="4" rx="0" fill="#1B4FD8"/>

    <rect x="820" y="256" width="412" height="100" rx="8" fill="white" stroke="#e5e7eb" stroke-width="1"/>
    <text x="1026" y="288" font-size="14" fill="#0f172a" font-weight="700" text-anchor="middle">Personal Information</text>
    <rect x="836" y="304" width="348" height="36" rx="6" fill="#f8fafc" stroke="#d1d5db" stroke-width="1"/>
    <text x="852" y="327" font-size="11" fill="#94a3b8">Full Name</text>
    <rect x="836" y="348" width="348" height="28" rx="6" fill="#1B4FD8"/>
    <text x="1026" y="367" font-size="11" fill="white" font-weight="600" text-anchor="middle">Continue</text>
  
</svg>