<svg xmlns="http://www.w3.org/2000/svg" width="1280" height="800" viewBox="0 0 1280 800">
  <defs>
    <style>
      text { font-family: -apple-system, BlinkMacSystemFont, 'Segoe UI', sans-serif; }
    </style>
  </defs>
  <rect width="1280" height="800" fill="#080E1A"/>
  
    <rect x="0" y="0" width="1280" height="56" rx="0" fill="#080E1A"/>
  <rect x="0" y="55" width="1280" height="1" fill="rgba(255,255,255,0.08)"/>
  <!-- logo -->
  <rect x="16" y="14" width="28" height="28" rx="7" fill="#1B4FD8"/>
  <text x="50" y="34" font-size="15" fill="white" font-weight="700">Docuplete</text>
  <rect x="126" y="18" width="38" height="20" rx="4" fill="rgba(255,255,255,0.08)"/>
  <text x="145" y="32" font-size="10" fill="rgba(255,255,255,0.4)" font-weight="600" text-anchor="middle">Docs</text>
  <!-- search -->
  <rect x="256" y="12" width="320" height="32" rx="8" fill="rgba(255,255,255,0.05)" stroke="rgba(255,255,255,0.08)" stroke-width="1"/>
  <text x="276" y="32" font-size="13" fill="rgba(255,255,255,0.35)">Search docs…</text>
  <!-- cta -->
  <rect x="1132" y="13" width="132" height="30" rx="8" fill="#1B4FD8"/>
  <text x="1198" y="33" font-size="13" fill="white" font-weight="600" text-anchor="middle">Start free trial</text>
    <rect x="0" y="56" width="1280" height="744" rx="0" fill="#080E1A"/>

    <!-- sidebar nav -->
    <rect x="0" y="56" width="220" height="744" rx="0" fill="#0A1120"/>
    <rect x="219" y="56" width="1" height="744" fill="rgba(255,255,255,0.08)"/>
    <text x="16" y="88" font-size="11" fill="rgba(255,255,255,0.35)" font-weight="700" text-anchor="start">Packages</text>
    <rect x="8" y="96" width="204" height="28" rx="8" fill="rgba(27,79,216,0.2)"/>
    <text x="20" y="115" font-size="13" fill="#5B8DEF" font-weight="600" text-anchor="start">All Packages</text>
    <text x="20" y="143" font-size="13" fill="rgba(255,255,255,0.35)" font-weight="normal" text-anchor="start">Sessions Dashboard</text>
    <text x="20" y="171" font-size="13" fill="rgba(255,255,255,0.35)" font-weight="normal" text-anchor="start">Batch Runs</text>
    <text x="20" y="199" font-size="13" fill="rgba(255,255,255,0.35)" font-weight="normal" text-anchor="start">Field Library</text>
    <text x="20" y="227" font-size="13" fill="rgba(255,255,255,0.35)" font-weight="normal" text-anchor="start">Settings</text>

    <!-- main area -->
    <rect x="220" y="56" width="1060" height="744" rx="0" fill="#080E1A"/>

    <!-- header row -->
    <text x="240" y="96" font-size="22" fill="rgba(255,255,255,0.85)" font-weight="700" text-anchor="start">Packages</text>
    <text x="240" y="116" font-size="13" fill="rgba(255,255,255,0.55)" font-weight="normal" text-anchor="start">Build and manage your PDF document workflows</text>
    <rect x="1104" y="74" width="152" height="36" rx="10" fill="#1B4FD8"/>
    <text x="1180" y="97" font-size="13" fill="white" font-weight="600" text-anchor="middle">+ New Package</text>

    <!-- packages grid -->
    <rect x="240" y="144" width="340" height="88" rx="10" fill="#111827" stroke="rgba(255,255,255,0.08)" stroke-width="1"/>
    <rect x="256" y="160" width="40" height="40" rx="8" fill="rgba(27,79,216,0.15)"/>
    <text x="276" y="184" font-size="20" fill="#5B8DEF" text-anchor="middle">📄</text>
    <text x="306" y="174" font-size="14" fill="rgba(255,255,255,0.85)" font-weight="600" text-anchor="start">New Client Intake</text>
    <text x="306" y="192" font-size="12" fill="rgba(255,255,255,0.55)" font-weight="normal" text-anchor="start">247 sessions</text>
    <rect x="488" y="160" width="80" height="22" rx="6" fill="rgba(34,197,94,0.12)"/><text x="528" y="175.5" font-size="11" fill="#22c55e" font-weight="600" text-anchor="middle">Active</text>
    <rect x="256" y="216" width="308" height="1" fill="rgba(255,255,255,0.08)"/>
    <rect x="596" y="144" width="340" height="88" rx="10" fill="#111827" stroke="rgba(255,255,255,0.08)" stroke-width="1"/>
    <rect x="612" y="160" width="40" height="40" rx="8" fill="rgba(27,79,216,0.15)"/>
    <text x="632" y="184" font-size="20" fill="#5B8DEF" text-anchor="middle">📄</text>
    <text x="662" y="174" font-size="14" fill="rgba(255,255,255,0.85)" font-weight="600" text-anchor="start">IRA Rollover Form</text>
    <text x="662" y="192" font-size="12" fill="rgba(255,255,255,0.55)" font-weight="normal" text-anchor="start">89 sessions</text>
    <rect x="844" y="160" width="80" height="22" rx="6" fill="rgba(34,197,94,0.12)"/><text x="884" y="175.5" font-size="11" fill="#22c55e" font-weight="600" text-anchor="middle">Active</text>
    <rect x="612" y="216" width="308" height="1" fill="rgba(255,255,255,0.08)"/>
    <rect x="952" y="144" width="340" height="88" rx="10" fill="#111827" stroke="rgba(255,255,255,0.08)" stroke-width="1"/>
    <rect x="968" y="160" width="40" height="40" rx="8" fill="rgba(27,79,216,0.15)"/>
    <text x="988" y="184" font-size="20" fill="#5B8DEF" text-anchor="middle">📄</text>
    <text x="1018" y="174" font-size="14" fill="rgba(255,255,255,0.85)" font-weight="600" text-anchor="start">Beneficiary Update</text>
    <text x="1018" y="192" font-size="12" fill="rgba(255,255,255,0.55)" font-weight="normal" text-anchor="start">34 sessions</text>
    <rect x="1200" y="160" width="80" height="22" rx="6" fill="rgba(255,255,255,0.06)"/><text x="1240" y="175.5" font-size="11" fill="rgba(255,255,255,0.55)" font-weight="600" text-anchor="middle">Draft</text>
    <rect x="968" y="216" width="308" height="1" fill="rgba(255,255,255,0.08)"/>

    <rect x="240" y="252" width="340" height="88" rx="10" fill="#111827" stroke="rgba(255,255,255,0.08)" stroke-width="1"/>
    <rect x="256" y="268" width="40" height="40" rx="8" fill="rgba(27,79,216,0.15)"/>
    <text x="276" y="292" font-size="20" fill="#5B8DEF" text-anchor="middle">📄</text>
    <text x="306" y="282" font-size="14" fill="rgba(255,255,255,0.85)" font-weight="600" text-anchor="start">Annual Disclosure</text>
    <text x="306" y="300" font-size="12" fill="rgba(255,255,255,0.55)" font-weight="normal" text-anchor="start">512 sessions</text>
    <rect x="488" y="268" width="80" height="22" rx="6" fill="rgba(34,197,94,0.12)"/><text x="528" y="283.5" font-size="11" fill="#22c55e" font-weight="600" text-anchor="middle">Active</text>
    <rect x="256" y="324" width="308" height="1" fill="rgba(255,255,255,0.08)"/>
    <rect x="596" y="252" width="340" height="88" rx="10" fill="#111827" stroke="rgba(255,255,255,0.08)" stroke-width="1"/>
    <rect x="612" y="268" width="40" height="40" rx="8" fill="rgba(27,79,216,0.15)"/>
    <text x="632" y="292" font-size="20" fill="#5B8DEF" text-anchor="middle">📄</text>
    <text x="662" y="282" font-size="14" fill="rgba(255,255,255,0.85)" font-weight="600" text-anchor="start">KYC Intake Form</text>
    <text x="662" y="300" font-size="12" fill="rgba(255,255,255,0.55)" font-weight="normal" text-anchor="start">156 sessions</text>
    <rect x="844" y="268" width="80" height="22" rx="6" fill="rgba(34,197,94,0.12)"/><text x="884" y="283.5" font-size="11" fill="#22c55e" font-weight="600" text-anchor="middle">Active</text>
    <rect x="612" y="324" width="308" height="1" fill="rgba(255,255,255,0.08)"/>
    <rect x="952" y="252" width="340" height="88" rx="10" fill="#111827" stroke="rgba(255,255,255,0.08)" stroke-width="1"/>
    <rect x="968" y="268" width="40" height="40" rx="8" fill="rgba(27,79,216,0.15)"/>
    <text x="988" y="292" font-size="20" fill="#5B8DEF" text-anchor="middle">📄</text>
    <text x="1018" y="282" font-size="14" fill="rgba(255,255,255,0.85)" font-weight="600" text-anchor="start">Account Agreement</text>
    <text x="1018" y="300" font-size="12" fill="rgba(255,255,255,0.55)" font-weight="normal" text-anchor="start">78 sessions</text>
    <rect x="1200" y="268" width="80" height="22" rx="6" fill="rgba(34,197,94,0.12)"/><text x="1240" y="283.5" font-size="11" fill="#22c55e" font-weight="600" text-anchor="middle">Active</text>
    <rect x="968" y="324" width="308" height="1" fill="rgba(255,255,255,0.08)"/>

    <rect x="240" y="360" width="340" height="88" rx="10" fill="#111827" stroke="rgba(255,255,255,0.08)" stroke-width="1"/>
    <rect x="256" y="376" width="40" height="40" rx="8" fill="rgba(27,79,216,0.15)"/>
    <text x="276" y="400" font-size="20" fill="#5B8DEF" text-anchor="middle">📄</text>
    <text x="306" y="390" font-size="14" fill="rgba(255,255,255,0.85)" font-weight="600" text-anchor="start">Lease Agreement</text>
    <text x="306" y="408" font-size="12" fill="rgba(255,255,255,0.55)" font-weight="normal" text-anchor="start">23 sessions</text>
    <rect x="488" y="376" width="80" height="22" rx="6" fill="rgba(34,197,94,0.12)"/><text x="528" y="391.5" font-size="11" fill="#22c55e" font-weight="600" text-anchor="middle">Active</text>
    <rect x="256" y="432" width="308" height="1" fill="rgba(255,255,255,0.08)"/>
    <rect x="596" y="360" width="340" height="88" rx="10" fill="#111827" stroke="rgba(255,255,255,0.08)" stroke-width="1"/>
    <rect x="612" y="376" width="40" height="40" rx="8" fill="rgba(27,79,216,0.15)"/>
    <text x="632" y="400" font-size="20" fill="#5B8DEF" text-anchor="middle">📄</text>
    <text x="662" y="390" font-size="14" fill="rgba(255,255,255,0.85)" font-weight="600" text-anchor="start">Employment Contract</text>
    <text x="662" y="408" font-size="12" fill="rgba(255,255,255,0.55)" font-weight="normal" text-anchor="start">61 sessions</text>
    <rect x="844" y="376" width="80" height="22" rx="6" fill="rgba(255,255,255,0.06)"/><text x="884" y="391.5" font-size="11" fill="rgba(255,255,255,0.55)" font-weight="600" text-anchor="middle">Draft</text>
    <rect x="612" y="432" width="308" height="1" fill="rgba(255,255,255,0.08)"/>
    <rect x="952" y="360" width="340" height="88" rx="10" fill="#111827" stroke="rgba(255,255,255,0.08)" stroke-width="1"/>
    <rect x="968" y="376" width="40" height="40" rx="8" fill="rgba(27,79,216,0.15)"/>
    <text x="988" y="400" font-size="20" fill="#5B8DEF" text-anchor="middle">📄</text>
    <text x="1018" y="390" font-size="14" fill="rgba(255,255,255,0.85)" font-weight="600" text-anchor="start">Consent Form v2</text>
    <text x="1018" y="408" font-size="12" fill="rgba(255,255,255,0.55)" font-weight="normal" text-anchor="start">194 sessions</text>
    <rect x="1200" y="376" width="80" height="22" rx="6" fill="rgba(34,197,94,0.12)"/><text x="1240" y="391.5" font-size="11" fill="#22c55e" font-weight="600" text-anchor="middle">Active</text>
    <rect x="968" y="432" width="308" height="1" fill="rgba(255,255,255,0.08)"/>

    <!-- stats strip -->
    <rect x="240" y="700" width="1024" height="76" rx="10" fill="#111827" stroke="rgba(255,255,255,0.08)" stroke-width="1"/>
    <text x="280" y="728" font-size="11" fill="rgba(255,255,255,0.35)" font-weight="600" text-anchor="start">Total packages</text>
    <text x="280" y="750" font-size="22" fill="rgba(255,255,255,0.85)" font-weight="700" text-anchor="start">9</text>
    <text x="500" y="728" font-size="11" fill="rgba(255,255,255,0.35)" font-weight="600" text-anchor="start">Sessions this month</text>
    <text x="500" y="750" font-size="22" fill="rgba(255,255,255,0.85)" font-weight="700" text-anchor="start">1,394</text>
    <text x="740" y="728" font-size="11" fill="rgba(255,255,255,0.35)" font-weight="600" text-anchor="start">Completion rate</text>
    <text x="740" y="750" font-size="22" fill="#22c55e" font-weight="700" text-anchor="start">94.2%</text>
    <text x="960" y="728" font-size="11" fill="rgba(255,255,255,0.35)" font-weight="600" text-anchor="start">Avg. fill time</text>
    <text x="960" y="750" font-size="22" fill="rgba(255,255,255,0.85)" font-weight="700" text-anchor="start">4m 12s</text>
  
</svg>