<svg xmlns="http://www.w3.org/2000/svg" width="1280" height="800" viewBox="0 0 1280 800">
  <defs>
    <style>
      text { font-family: -apple-system, BlinkMacSystemFont, 'Segoe UI', sans-serif; }
    </style>
  </defs>
  <rect width="1280" height="800" fill="#080E1A"/>
  
    <rect x="0" y="0" width="1280" height="56" rx="0" fill="#080E1A"/>
  <rect x="0" y="55" width="1280" height="1" fill="rgba(255,255,255,0.08)"/>
  <!-- logo -->
  <rect x="16" y="14" width="28" height="28" rx="7" fill="#1B4FD8"/>
  <text x="50" y="34" font-size="15" fill="white" font-weight="700">Docuplete</text>
  <rect x="126" y="18" width="38" height="20" rx="4" fill="rgba(255,255,255,0.08)"/>
  <text x="145" y="32" font-size="10" fill="rgba(255,255,255,0.4)" font-weight="600" text-anchor="middle">Docs</text>
  <!-- search -->
  <rect x="256" y="12" width="320" height="32" rx="8" fill="rgba(255,255,255,0.05)" stroke="rgba(255,255,255,0.08)" stroke-width="1"/>
  <text x="276" y="32" font-size="13" fill="rgba(255,255,255,0.35)">Search docs…</text>
  <!-- cta -->
  <rect x="1132" y="13" width="132" height="30" rx="8" fill="#1B4FD8"/>
  <text x="1198" y="33" font-size="13" fill="white" font-weight="600" text-anchor="middle">Start free trial</text>
    <rect x="0" y="56" width="240" height="744" rx="0" fill="#0A1120"/>
  <rect x="239" y="56" width="1" height="744" fill="rgba(255,255,255,0.08)"/><text x="16" y="84" font-size="12" fill="rgba(255,255,255,0.55)" font-weight="700">Getting Started</text><text x="20" y="117" font-size="12" fill="rgba(255,255,255,0.35)" font-weight="normal">What is Docuplete?</text><text x="20" y="145" font-size="12" fill="rgba(255,255,255,0.35)" font-weight="normal">Quick Start</text><text x="20" y="173" font-size="12" fill="rgba(255,255,255,0.35)" font-weight="normal">Plans</text><text x="16" y="196" font-size="12" fill="rgba(255,255,255,0.55)" font-weight="700">Building a Package</text><text x="20" y="229" font-size="12" fill="rgba(255,255,255,0.35)" font-weight="normal">Uploading a PDF</text><text x="20" y="257" font-size="12" fill="rgba(255,255,255,0.35)" font-weight="normal">Adding &amp; Editing Fields</text><text x="20" y="285" font-size="12" fill="rgba(255,255,255,0.35)" font-weight="normal">Visual Mapper</text><text x="20" y="313" font-size="12" fill="rgba(255,255,255,0.35)" font-weight="normal">E-Sign Fields</text><text x="20" y="341" font-size="12" fill="rgba(255,255,255,0.35)" font-weight="normal">Single-line vs. Multiline</text><text x="16" y="364" font-size="12" fill="rgba(255,255,255,0.55)" font-weight="700">Batch CSV Import</text><text x="20" y="397" font-size="12" fill="rgba(255,255,255,0.35)" font-weight="normal">When to Use Batch</text><text x="20" y="425" font-size="12" fill="rgba(255,255,255,0.35)" font-weight="normal">Downloading Template</text><text x="20" y="453" font-size="12" fill="rgba(255,255,255,0.35)" font-weight="normal">Filling Out CSV</text><text x="20" y="481" font-size="12" fill="rgba(255,255,255,0.35)" font-weight="normal">Uploading &amp; Results</text><text x="20" y="509" font-size="12" fill="rgba(255,255,255,0.35)" font-weight="normal">Understanding Errors</text><text x="16" y="532" font-size="12" fill="rgba(255,255,255,0.55)" font-weight="700">Sessions Dashboard</text><text x="20" y="565" font-size="12" fill="rgba(255,255,255,0.35)" font-weight="normal">Interviews Tab</text><text x="20" y="593" font-size="12" fill="rgba(255,255,255,0.35)" font-weight="normal">Batch Runs Tab</text><text x="16" y="616" font-size="12" fill="rgba(255,255,255,0.55)" font-weight="700">Sending to Clients</text><text x="20" y="649" font-size="12" fill="rgba(255,255,255,0.35)" font-weight="normal">Generating a Session</text><text x="20" y="677" font-size="12" fill="rgba(255,255,255,0.35)" font-weight="normal">Client Experience</text><text x="20" y="705" font-size="12" fill="rgba(255,255,255,0.35)" font-weight="normal">E-Sign Verification</text><text x="16" y="728" font-size="12" fill="rgba(255,255,255,0.55)" font-weight="700">Account &amp; Settings</text><text x="20" y="761" font-size="12" fill="rgba(255,255,255,0.35)" font-weight="normal">API Keys</text><text x="20" y="789" font-size="12" fill="rgba(255,255,255,0.35)" font-weight="normal">Branding</text>

    <!-- tabs strip -->
    <rect x="240" y="56" width="1040" height="44" rx="0" fill="#0A1120"/>
    <rect x="240" y="99" width="1040" height="1" fill="rgba(255,255,255,0.08)"/>
    <text x="260" y="83" font-size="13" fill="rgba(255,255,255,0.35)" font-weight="normal" text-anchor="start">Documents</text>
    <text x="348" y="83" font-size="13" fill="#5B8DEF" font-weight="600" text-anchor="start">Fields</text>
    <rect x="345" y="99" width="46" height="2" fill="#1B4FD8" rx="1"/>
    <text x="402" y="83" font-size="13" fill="rgba(255,255,255,0.35)" font-weight="normal" text-anchor="start">Mapper</text>
    <text x="458" y="83" font-size="13" fill="rgba(255,255,255,0.35)" font-weight="normal" text-anchor="start">Configuration</text>

    <!-- field list area -->
    <rect x="240" y="100" width="440" height="700" rx="0" fill="#0A1120"/>
    <rect x="679" y="100" width="1" height="700" fill="rgba(255,255,255,0.08)"/>
    <text x="256" y="128" font-size="12" fill="rgba(255,255,255,0.35)" font-weight="700" text-anchor="start">Interview Fields</text>
    <rect x="1112" y="112" width="148" height="32" rx="8" fill="#1B4FD8"/>
    <text x="576" y="132" font-size="13" fill="white" font-weight="600" text-anchor="middle">+ Add Field</text>

    <rect x="248" y="156" width="424" height="50" rx="8" fill="rgba(255,255,255,0.03)" stroke="rgba(255,255,255,0.08)" stroke-width="1"/>
      <rect x="260" y="170" width="3" height="22" rx="2" fill="rgba(255,255,255,0.08)"/>
      <text x="272" y="178" font-size="13" fill="rgba(255,255,255,0.85)" font-weight="normal" text-anchor="start">Full Legal Name</text>
      <text x="272" y="194" font-size="11" fill="rgba(255,255,255,0.35)" font-weight="normal" text-anchor="start">full_legal_name</text>
      <rect x="568" y="171" width="56" height="20" rx="4" fill="rgba(255,255,255,0.06)"/><text x="596" y="185.5" font-size="11" fill="rgba(255,255,255,0.55)" font-weight="600" text-anchor="middle">Required</text>
<rect x="248" y="214" width="424" height="50" rx="8" fill="rgba(255,255,255,0.03)" stroke="rgba(255,255,255,0.08)" stroke-width="1"/>
      <rect x="260" y="228" width="3" height="22" rx="2" fill="rgba(255,255,255,0.08)"/>
      <text x="272" y="236" font-size="13" fill="rgba(255,255,255,0.85)" font-weight="normal" text-anchor="start">Date of Birth</text>
      <text x="272" y="252" font-size="11" fill="rgba(255,255,255,0.35)" font-weight="normal" text-anchor="start">date_of_birth</text>
      <rect x="568" y="229" width="56" height="20" rx="4" fill="rgba(255,255,255,0.06)"/><text x="596" y="243.5" font-size="11" fill="rgba(255,255,255,0.55)" font-weight="600" text-anchor="middle">Required</text>
<rect x="248" y="272" width="424" height="50" rx="8" fill="rgba(27,79,216,0.15)" stroke="#1B4FD8" stroke-width="1"/>
      <rect x="260" y="286" width="3" height="22" rx="2" fill="#1B4FD8"/>
      <text x="272" y="294" font-size="13" fill="white" font-weight="600" text-anchor="start">SSN / Tax ID</text>
      <text x="272" y="310" font-size="11" fill="#5B8DEF" font-weight="normal" text-anchor="start">ssn_tax_id</text>
      <rect x="568" y="287" width="56" height="20" rx="4" fill="rgba(255,255,255,0.06)"/><text x="596" y="301.5" font-size="11" fill="rgba(255,255,255,0.55)" font-weight="600" text-anchor="middle">Required</text>
<rect x="248" y="330" width="424" height="50" rx="8" fill="rgba(255,255,255,0.03)" stroke="rgba(255,255,255,0.08)" stroke-width="1"/>
      <rect x="260" y="344" width="3" height="22" rx="2" fill="rgba(255,255,255,0.08)"/>
      <text x="272" y="352" font-size="13" fill="rgba(255,255,255,0.85)" font-weight="normal" text-anchor="start">Email Address</text>
      <text x="272" y="368" font-size="11" fill="rgba(255,255,255,0.35)" font-weight="normal" text-anchor="start">email_address</text>
      <rect x="568" y="345" width="56" height="20" rx="4" fill="rgba(255,255,255,0.06)"/><text x="596" y="359.5" font-size="11" fill="rgba(255,255,255,0.55)" font-weight="600" text-anchor="middle">Optional</text>
<rect x="248" y="388" width="424" height="50" rx="8" fill="rgba(255,255,255,0.03)" stroke="rgba(255,255,255,0.08)" stroke-width="1"/>
      <rect x="260" y="402" width="3" height="22" rx="2" fill="rgba(255,255,255,0.08)"/>
      <text x="272" y="410" font-size="13" fill="rgba(255,255,255,0.85)" font-weight="normal" text-anchor="start">Phone Number</text>
      <text x="272" y="426" font-size="11" fill="rgba(255,255,255,0.35)" font-weight="normal" text-anchor="start">phone_number</text>
      <rect x="568" y="403" width="56" height="20" rx="4" fill="rgba(255,255,255,0.06)"/><text x="596" y="417.5" font-size="11" fill="rgba(255,255,255,0.55)" font-weight="600" text-anchor="middle">Optional</text>
<rect x="248" y="446" width="424" height="50" rx="8" fill="rgba(255,255,255,0.03)" stroke="rgba(255,255,255,0.08)" stroke-width="1"/>
      <rect x="260" y="460" width="3" height="22" rx="2" fill="rgba(255,255,255,0.08)"/>
      <text x="272" y="468" font-size="13" fill="rgba(255,255,255,0.85)" font-weight="normal" text-anchor="start">Account Type</text>
      <text x="272" y="484" font-size="11" fill="rgba(255,255,255,0.35)" font-weight="normal" text-anchor="start">account_type</text>
      <rect x="568" y="461" width="56" height="20" rx="4" fill="rgba(255,255,255,0.06)"/><text x="596" y="475.5" font-size="11" fill="rgba(255,255,255,0.55)" font-weight="600" text-anchor="middle">Required</text>
<rect x="248" y="504" width="424" height="50" rx="8" fill="rgba(255,255,255,0.03)" stroke="rgba(255,255,255,0.08)" stroke-width="1"/>
      <rect x="260" y="518" width="3" height="22" rx="2" fill="rgba(255,255,255,0.08)"/>
      <text x="272" y="526" font-size="13" fill="rgba(255,255,255,0.85)" font-weight="normal" text-anchor="start">Annual Income</text>
      <text x="272" y="542" font-size="11" fill="rgba(255,255,255,0.35)" font-weight="normal" text-anchor="start">annual_income</text>
      <rect x="568" y="519" width="56" height="20" rx="4" fill="rgba(255,255,255,0.06)"/><text x="596" y="533.5" font-size="11" fill="rgba(255,255,255,0.55)" font-weight="600" text-anchor="middle">Optional</text>

    <!-- right edit panel -->
    <rect x="680" y="100" width="600" height="700" rx="0" fill="#111827"/>
    <text x="700" y="128" font-size="14" fill="rgba(255,255,255,0.85)" font-weight="600" text-anchor="start">Edit Field</text>
    <text x="700" y="148" font-size="18" fill="white" font-weight="700" text-anchor="start">SSN / Tax ID</text>

    <text x="700" y="176" font-size="11" fill="rgba(255,255,255,0.35)" font-weight="600" text-anchor="start">Label</text>
      <rect x="700" y="184" width="540" height="36" rx="8" fill="#0F1A2E" stroke="rgba(255,255,255,0.08)" stroke-width="1"/>
      <text x="716" y="207" font-size="13" fill="rgba(255,255,255,0.85)" font-weight="normal" text-anchor="start">SSN / Tax ID</text>
<text x="700" y="248" font-size="11" fill="rgba(255,255,255,0.35)" font-weight="600" text-anchor="start">Key</text>
      <rect x="700" y="256" width="540" height="36" rx="8" fill="#0F1A2E" stroke="rgba(255,255,255,0.08)" stroke-width="1"/>
      <text x="716" y="279" font-size="13" fill="rgba(255,255,255,0.85)" font-weight="normal" text-anchor="start">ssn_tax_id</text>
<text x="700" y="320" font-size="11" fill="rgba(255,255,255,0.35)" font-weight="600" text-anchor="start">Interview mode</text>
      <rect x="700" y="328" width="540" height="36" rx="8" fill="#0F1A2E" stroke="rgba(255,255,255,0.08)" stroke-width="1"/>
      <text x="716" y="351" font-size="13" fill="rgba(255,255,255,0.85)" font-weight="normal" text-anchor="start">Required</text>
<text x="700" y="392" font-size="11" fill="rgba(255,255,255,0.35)" font-weight="600" text-anchor="start">Placeholder text</text>
      <rect x="700" y="400" width="540" height="36" rx="8" fill="#0F1A2E" stroke="rgba(255,255,255,0.08)" stroke-width="1"/>
      <text x="716" y="423" font-size="13" fill="rgba(255,255,255,0.85)" font-weight="normal" text-anchor="start">XXX-XX-XXXX</text>

    <text x="700" y="480" font-size="11" fill="rgba(255,255,255,0.35)" font-weight="600" text-anchor="start">Conditional logic</text>
    <rect x="700" y="488" width="540" height="36" rx="8" fill="#0F1A2E" stroke="rgba(255,255,255,0.08)" stroke-width="1"/>
    <text x="716" y="511" font-size="13" fill="rgba(255,255,255,0.35)" font-weight="normal" text-anchor="start">Always show</text>

    <rect x="700" y="724" width="80" height="36" rx="8" fill="#111827" stroke="rgba(255,255,255,0.08)" stroke-width="1"/>
    <text x="740" y="746" font-size="13" fill="rgba(255,255,255,0.55)" font-weight="600" text-anchor="middle">Cancel</text>
    <rect x="788" y="724" width="452" height="36" rx="8" fill="#1B4FD8"/>
    <text x="1014" y="746" font-size="13" fill="white" font-weight="600" text-anchor="middle">Save Field</text>
  
</svg>