<svg xmlns="http://www.w3.org/2000/svg" width="1280" height="800" viewBox="0 0 1280 800">
  <defs>
    <style>
      text { font-family: -apple-system, BlinkMacSystemFont, 'Segoe UI', sans-serif; }
    </style>
  </defs>
  <rect width="1280" height="800" fill="#080E1A"/>
  
    <rect x="0" y="0" width="1280" height="56" rx="0" fill="#080E1A"/>
  <rect x="0" y="55" width="1280" height="1" fill="rgba(255,255,255,0.08)"/>
  <!-- logo -->
  <rect x="16" y="14" width="28" height="28" rx="7" fill="#1B4FD8"/>
  <text x="50" y="34" font-size="15" fill="white" font-weight="700">Docuplete</text>
  <rect x="126" y="18" width="38" height="20" rx="4" fill="rgba(255,255,255,0.08)"/>
  <text x="145" y="32" font-size="10" fill="rgba(255,255,255,0.4)" font-weight="600" text-anchor="middle">Docs</text>
  <!-- search -->
  <rect x="256" y="12" width="320" height="32" rx="8" fill="rgba(255,255,255,0.05)" stroke="rgba(255,255,255,0.08)" stroke-width="1"/>
  <text x="276" y="32" font-size="13" fill="rgba(255,255,255,0.35)">Search docs…</text>
  <!-- cta -->
  <rect x="1132" y="13" width="132" height="30" rx="8" fill="#1B4FD8"/>
  <text x="1198" y="33" font-size="13" fill="white" font-weight="600" text-anchor="middle">Start free trial</text>
    <rect x="0" y="56" width="1280" height="744" rx="0" fill="#080E1A"/>

    <!-- sidebar -->
    <rect x="0" y="56" width="220" height="744" rx="0" fill="#0A1120"/>
    <rect x="219" y="56" width="1" height="744" fill="rgba(255,255,255,0.08)"/>
    <text x="16" y="88" font-size="11" fill="rgba(255,255,255,0.35)" font-weight="700" text-anchor="start">Sessions Dashboard</text>
    <rect x="8" y="96" width="204" height="28" rx="8" fill="rgba(27,79,216,0.2)"/>
    <text x="20" y="115" font-size="13" fill="#5B8DEF" font-weight="600" text-anchor="start">Interviews</text>
    <text x="20" y="143" font-size="13" fill="rgba(255,255,255,0.35)" font-weight="normal" text-anchor="start">Batch Runs</text>

    <!-- main -->
    <text x="240" y="96" font-size="22" fill="rgba(255,255,255,0.85)" font-weight="700" text-anchor="start">Interviews</text>
    <text x="240" y="118" font-size="13" fill="rgba(255,255,255,0.55)" font-weight="normal" text-anchor="start">All individual client sessions</text>

    <!-- filter bar -->
    <rect x="240" y="136" width="1024" height="48" rx="10" fill="#111827" stroke="rgba(255,255,255,0.08)" stroke-width="1"/>
    <rect x="256" y="148" width="240" height="28" rx="8" fill="#0F1A2E" stroke="rgba(255,255,255,0.08)" stroke-width="1"/>
    <text x="268" y="166" font-size="12" fill="rgba(255,255,255,0.35)" font-weight="normal" text-anchor="start">🔍 Search by name or email…</text>
    <rect x="508" y="148" width="100" height="28" rx="8" fill="#0F1A2E" stroke="rgba(255,255,255,0.08)" stroke-width="1"/>
    <text x="558" y="166" font-size="12" fill="rgba(255,255,255,0.35)" font-weight="normal" text-anchor="middle">Status ▾</text>
    <rect x="616" y="148" width="100" height="28" rx="8" fill="#0F1A2E" stroke="rgba(255,255,255,0.08)" stroke-width="1"/>
    <text x="666" y="166" font-size="12" fill="rgba(255,255,255,0.35)" font-weight="normal" text-anchor="middle">Package ▾</text>
    <rect x="1080" y="148" width="124" height="28" rx="8" fill="#1B4FD8"/>
    <text x="1142" y="166" font-size="12" fill="white" font-weight="600" text-anchor="middle">+ New Session</text>

    <!-- table -->
    <rect x="240" y="192" width="1024" height="592" rx="10" fill="#111827" stroke="rgba(255,255,255,0.08)" stroke-width="1"/>
    <rect x="240" y="192" width="1024" height="36" rx="10" fill="#0D1829"/>
    <rect x="240" y="227" width="1024" height="1" fill="rgba(255,255,255,0.08)"/>
    <text x="256" y="214" font-size="11" fill="rgba(255,255,255,0.35)" font-weight="600" text-anchor="start">Client name</text>
<text x="420" y="214" font-size="11" fill="rgba(255,255,255,0.35)" font-weight="600" text-anchor="start">Package</text>
<text x="600" y="214" font-size="11" fill="rgba(255,255,255,0.35)" font-weight="600" text-anchor="start">Status</text>
<text x="760" y="214" font-size="11" fill="rgba(255,255,255,0.35)" font-weight="600" text-anchor="start">Created</text>
<text x="900" y="214" font-size="11" fill="rgba(255,255,255,0.35)" font-weight="600" text-anchor="start">Submitted</text>

    <rect x="240" y="228" width="1024" height="60" rx="0" fill="rgba(255,255,255,0.01)"/>
      <rect x="240" y="287" width="1024" height="1" fill="rgba(255,255,255,0.08)"/>
      <text x="256" y="262" font-size="13" fill="rgba(255,255,255,0.85)" font-weight="600" text-anchor="start">Margaret A. Johnson</text>
      <text x="420" y="262" font-size="12" fill="rgba(255,255,255,0.55)" font-weight="normal" text-anchor="start">New Client Intake</text>
      <rect x="600" y="250" width="75" height="22" rx="6" fill="rgba(34,197,94,0.12)"/><text x="637.5" y="265.5" font-size="11" fill="#22c55e" font-weight="600" text-anchor="middle">Generated</text>
      <text x="760" y="262" font-size="12" fill="rgba(255,255,255,0.35)" font-weight="normal" text-anchor="start">May 3, 2026</text>
      <text x="900" y="262" font-size="12" fill="rgba(255,255,255,0.85)" font-weight="normal" text-anchor="start">May 3, 2026</text>
<rect x="240" y="288" width="1024" height="60" rx="0" fill="transparent"/>
      <rect x="240" y="347" width="1024" height="1" fill="rgba(255,255,255,0.08)"/>
      <text x="256" y="322" font-size="13" fill="rgba(255,255,255,0.85)" font-weight="600" text-anchor="start">Robert Chen</text>
      <text x="420" y="322" font-size="12" fill="rgba(255,255,255,0.55)" font-weight="normal" text-anchor="start">IRA Rollover Form</text>
      <rect x="600" y="310" width="89" height="22" rx="6" fill="rgba(91,141,239,0.12)"/><text x="644.5" y="325.5" font-size="11" fill="#5B8DEF" font-weight="600" text-anchor="middle">In Progress</text>
      <text x="760" y="322" font-size="12" fill="rgba(255,255,255,0.35)" font-weight="normal" text-anchor="start">May 3, 2026</text>
      <text x="900" y="322" font-size="12" fill="rgba(255,255,255,0.35)" font-weight="normal" text-anchor="start">—</text>
<rect x="240" y="348" width="1024" height="60" rx="0" fill="rgba(255,255,255,0.01)"/>
      <rect x="240" y="407" width="1024" height="1" fill="rgba(255,255,255,0.08)"/>
      <text x="256" y="382" font-size="13" fill="rgba(255,255,255,0.85)" font-weight="600" text-anchor="start">Sarah Williams</text>
      <text x="420" y="382" font-size="12" fill="rgba(255,255,255,0.55)" font-weight="normal" text-anchor="start">New Client Intake</text>
      <rect x="600" y="370" width="61" height="22" rx="6" fill="rgba(245,158,11,0.12)"/><text x="630.5" y="385.5" font-size="11" fill="#f59e0b" font-weight="600" text-anchor="middle">Pending</text>
      <text x="760" y="382" font-size="12" fill="rgba(255,255,255,0.35)" font-weight="normal" text-anchor="start">May 2, 2026</text>
      <text x="900" y="382" font-size="12" fill="rgba(255,255,255,0.35)" font-weight="normal" text-anchor="start">—</text>
<rect x="240" y="408" width="1024" height="60" rx="0" fill="transparent"/>
      <rect x="240" y="467" width="1024" height="1" fill="rgba(255,255,255,0.08)"/>
      <text x="256" y="442" font-size="13" fill="rgba(255,255,255,0.85)" font-weight="600" text-anchor="start">David Torres</text>
      <text x="420" y="442" font-size="12" fill="rgba(255,255,255,0.55)" font-weight="normal" text-anchor="start">Annual Disclosure</text>
      <rect x="600" y="430" width="75" height="22" rx="6" fill="rgba(34,197,94,0.12)"/><text x="637.5" y="445.5" font-size="11" fill="#22c55e" font-weight="600" text-anchor="middle">Generated</text>
      <text x="760" y="442" font-size="12" fill="rgba(255,255,255,0.35)" font-weight="normal" text-anchor="start">May 1, 2026</text>
      <text x="900" y="442" font-size="12" fill="rgba(255,255,255,0.85)" font-weight="normal" text-anchor="start">May 2, 2026</text>
<rect x="240" y="468" width="1024" height="60" rx="0" fill="rgba(255,255,255,0.01)"/>
      <rect x="240" y="527" width="1024" height="1" fill="rgba(255,255,255,0.08)"/>
      <text x="256" y="502" font-size="13" fill="rgba(255,255,255,0.85)" font-weight="600" text-anchor="start">Emma Davis</text>
      <text x="420" y="502" font-size="12" fill="rgba(255,255,255,0.55)" font-weight="normal" text-anchor="start">Beneficiary Update</text>
      <rect x="600" y="490" width="61" height="22" rx="6" fill="rgba(255,255,255,0.06)"/><text x="630.5" y="505.5" font-size="11" fill="rgba(255,255,255,0.35)" font-weight="600" text-anchor="middle">Expired</text>
      <text x="760" y="502" font-size="12" fill="rgba(255,255,255,0.35)" font-weight="normal" text-anchor="start">Apr 25, 2026</text>
      <text x="900" y="502" font-size="12" fill="rgba(255,255,255,0.35)" font-weight="normal" text-anchor="start">—</text>
<rect x="240" y="528" width="1024" height="60" rx="0" fill="transparent"/>
      <rect x="240" y="587" width="1024" height="1" fill="rgba(255,255,255,0.08)"/>
      <text x="256" y="562" font-size="13" fill="rgba(255,255,255,0.85)" font-weight="600" text-anchor="start">James Wilson</text>
      <text x="420" y="562" font-size="12" fill="rgba(255,255,255,0.55)" font-weight="normal" text-anchor="start">New Client Intake</text>
      <rect x="600" y="550" width="75" height="22" rx="6" fill="rgba(34,197,94,0.12)"/><text x="637.5" y="565.5" font-size="11" fill="#22c55e" font-weight="600" text-anchor="middle">Generated</text>
      <text x="760" y="562" font-size="12" fill="rgba(255,255,255,0.35)" font-weight="normal" text-anchor="start">Apr 24, 2026</text>
      <text x="900" y="562" font-size="12" fill="rgba(255,255,255,0.85)" font-weight="normal" text-anchor="start">Apr 25, 2026</text>
  
</svg>