<svg xmlns="http://www.w3.org/2000/svg" width="1280" height="800" viewBox="0 0 1280 800">
  <defs>
    <style>
      text { font-family: -apple-system, BlinkMacSystemFont, 'Segoe UI', sans-serif; }
    </style>
  </defs>
  <rect width="1280" height="800" fill="#080E1A"/>
  
    <rect x="0" y="0" width="1280" height="56" rx="0" fill="#080E1A"/>
  <rect x="0" y="55" width="1280" height="1" fill="rgba(255,255,255,0.08)"/>
  <!-- logo -->
  <rect x="16" y="14" width="28" height="28" rx="7" fill="#1B4FD8"/>
  <text x="50" y="34" font-size="15" fill="white" font-weight="700">Docuplete</text>
  <rect x="126" y="18" width="38" height="20" rx="4" fill="rgba(255,255,255,0.08)"/>
  <text x="145" y="32" font-size="10" fill="rgba(255,255,255,0.4)" font-weight="600" text-anchor="middle">Docs</text>
  <!-- search -->
  <rect x="256" y="12" width="320" height="32" rx="8" fill="rgba(255,255,255,0.05)" stroke="rgba(255,255,255,0.08)" stroke-width="1"/>
  <text x="276" y="32" font-size="13" fill="rgba(255,255,255,0.35)">Search docs…</text>
  <!-- cta -->
  <rect x="1132" y="13" width="132" height="30" rx="8" fill="#1B4FD8"/>
  <text x="1198" y="33" font-size="13" fill="white" font-weight="600" text-anchor="middle">Start free trial</text>

    <!-- top toolbar -->
    <rect x="0" y="56" width="1280" height="44" rx="0" fill="#0A1120"/>
    <rect x="0" y="99" width="1280" height="1" fill="rgba(255,255,255,0.08)"/>
    <text x="16" y="83" font-size="13" fill="rgba(255,255,255,0.55)" font-weight="normal" text-anchor="start">← New Client Intake</text>
    <text x="640" y="83" font-size="14" fill="rgba(255,255,255,0.85)" font-weight="600" text-anchor="middle">Visual Mapper</text>
    <rect x="1140" y="68" width="124" height="26" rx="6" fill="#1B4FD8"/><text x="1202" y="85.5" font-size="11" fill="white" font-weight="600" text-anchor="middle">Save all mappings</text>

    <!-- field list panel -->
    <rect x="0" y="100" width="460" height="700" rx="0" fill="#0A1422"/>
    <rect x="459" y="100" width="1" height="700" fill="rgba(255,255,255,0.08)"/>
    <text x="16" y="132" font-size="12" fill="rgba(255,255,255,0.35)" font-weight="700" text-anchor="start">Fields</text>

    <rect x="8" y="152" width="444" height="52" rx="8" fill="rgba(27,79,216,0.2)" stroke="#1B4FD8" stroke-width="1"/>
      <text x="20" y="174" font-size="13" fill="white" font-weight="600" text-anchor="start">Full Legal Name</text>
      <text x="20" y="190" font-size="11" fill="#5B8DEF" font-weight="normal" text-anchor="start">2 mappings</text>
      <rect x="392" y="168" width="56" height="20" rx="4" fill="rgba(34,197,94,0.2)"/><text x="420" y="182.5" font-size="11" fill="#22c55e" font-weight="600" text-anchor="middle">mapped</text>
<rect x="8" y="212" width="444" height="52" rx="8" fill="rgba(255,255,255,0.02)" stroke="none" stroke-width="1"/>
      <text x="20" y="234" font-size="13" fill="rgba(255,255,255,0.55)" font-weight="normal" text-anchor="start">Date of Birth</text>
      <text x="20" y="250" font-size="11" fill="rgba(255,255,255,0.35)" font-weight="normal" text-anchor="start">1 mapping</text>
      <rect x="392" y="228" width="56" height="20" rx="4" fill="rgba(34,197,94,0.1)"/><text x="420" y="242.5" font-size="11" fill="#16a34a" font-weight="600" text-anchor="middle">mapped</text>
<rect x="8" y="272" width="444" height="52" rx="8" fill="rgba(255,255,255,0.02)" stroke="none" stroke-width="1"/>
      <text x="20" y="294" font-size="13" fill="rgba(255,255,255,0.55)" font-weight="normal" text-anchor="start">SSN / Tax ID</text>
      <text x="20" y="310" font-size="11" fill="rgba(255,255,255,0.35)" font-weight="normal" text-anchor="start">1 mapping</text>
      <rect x="392" y="288" width="56" height="20" rx="4" fill="rgba(34,197,94,0.1)"/><text x="420" y="302.5" font-size="11" fill="#16a34a" font-weight="600" text-anchor="middle">mapped</text>
<rect x="8" y="332" width="444" height="52" rx="8" fill="rgba(255,255,255,0.02)" stroke="none" stroke-width="1"/>
      <text x="20" y="354" font-size="13" fill="rgba(255,255,255,0.55)" font-weight="normal" text-anchor="start">Email Address</text>
      <text x="20" y="370" font-size="11" fill="rgba(255,255,255,0.35)" font-weight="normal" text-anchor="start">1 mapping</text>
      <rect x="392" y="348" width="56" height="20" rx="4" fill="rgba(34,197,94,0.1)"/><text x="420" y="362.5" font-size="11" fill="#16a34a" font-weight="600" text-anchor="middle">mapped</text>
<rect x="8" y="392" width="444" height="52" rx="8" fill="rgba(255,255,255,0.02)" stroke="none" stroke-width="1"/>
      <text x="20" y="414" font-size="13" fill="rgba(255,255,255,0.55)" font-weight="normal" text-anchor="start">Account Type</text>
      <text x="20" y="430" font-size="11" fill="rgba(255,255,255,0.35)" font-weight="normal" text-anchor="start">3 mappings</text>
      <rect x="392" y="408" width="56" height="20" rx="4" fill="rgba(34,197,94,0.1)"/><text x="420" y="422.5" font-size="11" fill="#16a34a" font-weight="600" text-anchor="middle">mapped</text>
<rect x="8" y="452" width="444" height="52" rx="8" fill="rgba(255,255,255,0.02)" stroke="none" stroke-width="1"/>
      <text x="20" y="474" font-size="13" fill="rgba(255,255,255,0.55)" font-weight="normal" text-anchor="start">Annual Income</text>
      <text x="20" y="490" font-size="11" fill="rgba(255,255,255,0.35)" font-weight="normal" text-anchor="start">No mappings</text>
      
<rect x="8" y="512" width="444" height="52" rx="8" fill="rgba(255,255,255,0.02)" stroke="none" stroke-width="1"/>
      <text x="20" y="534" font-size="13" fill="rgba(255,255,255,0.55)" font-weight="normal" text-anchor="start">Signature</text>
      <text x="20" y="550" font-size="11" fill="rgba(255,255,255,0.35)" font-weight="normal" text-anchor="start">1 mapping</text>
      <rect x="392" y="528" width="56" height="20" rx="4" fill="rgba(34,197,94,0.1)"/><text x="420" y="542.5" font-size="11" fill="#16a34a" font-weight="600" text-anchor="middle">mapped</text>

    <!-- PDF canvas -->
    <rect x="460" y="100" width="632" height="700" rx="0" fill="#1a2a3a"/>
    <rect x="484" y="120" width="584" height="656" rx="4" fill="white"/>

    <!-- PDF content -->
    <text x="508" y="156" font-size="10" fill="#374151" font-weight="700" text-anchor="start">CLIENT INFORMATION FORM</text>
    <rect x="508" y="164" width="536" height="1" rx="0" fill="#e5e7eb"/>

    <text x="508" y="184" font-size="9" fill="#374151" font-weight="normal" text-anchor="start">Full Legal Name:</text>
    <rect x="508" y="188" width="260" height="28" rx="3" fill="#eff6ff" stroke="#1B4FD8" stroke-width="2"/>
    <text x="638" y="206" font-size="9" fill="#1d4ed8" text-anchor="middle">Full Legal Name</text>
    <!-- callout annotation -->
    <circle cx="788" cy="202" r="14" fill="#1B4FD8"/>
    <text x="788" y="207" font-size="12" fill="white" font-weight="700" text-anchor="middle">1</text>
    <line x1="768" y1="202" x2="774" y2="202" stroke="#1B4FD8" stroke-width="2"/>

    <text x="508" y="234" font-size="9" fill="#374151" font-weight="normal" text-anchor="start">Date of Birth:</text>
    <rect x="508" y="238" width="120" height="24" rx="3" fill="#fafafa" stroke="#d1d5db" stroke-width="1"/>

    <text x="660" y="234" font-size="9" fill="#374151" font-weight="normal" text-anchor="start">SSN:</text>
    <rect x="660" y="238" width="108" height="24" rx="3" fill="#fafafa" stroke="#d1d5db" stroke-width="1"/>

    <text x="508" y="280" font-size="9" fill="#6b7280" font-weight="normal" text-anchor="start">Also appearing as:</text>
    <rect x="508" y="284" width="260" height="28" rx="3" fill="#eff6ff" stroke="#1B4FD8" stroke-width="1.5"/>
    <text x="638" y="302" font-size="9" fill="#93c5fd" text-anchor="middle">Full Legal Name</text>
    <!-- second callout -->
    <circle cx="788" cy="298" r="14" fill="#1B4FD8"/>
    <text x="788" y="303" font-size="12" fill="white" font-weight="700" text-anchor="middle">2</text>
    <line x1="768" y1="298" x2="774" y2="298" stroke="#1B4FD8" stroke-width="2"/>

    <!-- legend -->
    <rect x="484" y="720" width="584" height="36" rx="6" fill="rgba(0,0,0,0.06)"/>
    <text x="500" y="742" font-size="11" fill="#6b7280" font-weight="normal" text-anchor="start">ⓘ  Numbered callouts indicate multiple mappings for the same field.</text>

    <!-- right panel -->
    <rect x="1092" y="100" width="188" height="700" rx="0" fill="#0A1422"/>
    <rect x="1092" y="100" width="1" height="700" fill="rgba(255,255,255,0.08)"/>
    <text x="1104" y="128" font-size="12" fill="rgba(255,255,255,0.35)" font-weight="700" text-anchor="start">Formatting</text>
    <text x="1104" y="156" font-size="11" fill="rgba(255,255,255,0.35)" font-weight="normal" text-anchor="start">Font size</text>
    <rect x="1104" y="162" width="164" height="30" rx="6" fill="#111827" stroke="rgba(255,255,255,0.08)" stroke-width="1"/>
    <text x="1186" y="182" font-size="12" fill="rgba(255,255,255,0.85)" font-weight="normal" text-anchor="middle">11 pt</text>
    <text x="1104" y="208" font-size="11" fill="rgba(255,255,255,0.35)" font-weight="normal" text-anchor="start">Alignment</text>
    <rect x="1104" y="214" width="164" height="30" rx="6" fill="#1B4FD8"/>
    <text x="1186" y="234" font-size="12" fill="white" font-weight="600" text-anchor="middle">Left</text>
    <text x="1104" y="260" font-size="11" fill="rgba(255,255,255,0.35)" font-weight="normal" text-anchor="start">Transform</text>
    <rect x="1104" y="266" width="164" height="30" rx="6" fill="#111827" stroke="rgba(255,255,255,0.08)" stroke-width="1"/>
    <text x="1186" y="286" font-size="12" fill="rgba(255,255,255,0.85)" font-weight="normal" text-anchor="middle">None</text>
    <rect x="1104" y="736" width="164" height="36" rx="8" fill="#1B4FD8"/>
    <text x="1186" y="758" font-size="13" fill="white" font-weight="600" text-anchor="middle">Save</text>
  
</svg>