<svg xmlns="http://www.w3.org/2000/svg" width="1280" height="800" viewBox="0 0 1280 800">
  <defs>
    <style>
      text { font-family: -apple-system, BlinkMacSystemFont, 'Segoe UI', sans-serif; }
    </style>
  </defs>
  <rect width="1280" height="800" fill="#080E1A"/>
  
    <rect x="0" y="0" width="1280" height="56" rx="0" fill="#080E1A"/>
  <rect x="0" y="55" width="1280" height="1" fill="rgba(255,255,255,0.08)"/>
  <!-- logo -->
  <rect x="16" y="14" width="28" height="28" rx="7" fill="#1B4FD8"/>
  <text x="50" y="34" font-size="15" fill="white" font-weight="700">Docuplete</text>
  <rect x="126" y="18" width="38" height="20" rx="4" fill="rgba(255,255,255,0.08)"/>
  <text x="145" y="32" font-size="10" fill="rgba(255,255,255,0.4)" font-weight="600" text-anchor="middle">Docs</text>
  <!-- search -->
  <rect x="256" y="12" width="320" height="32" rx="8" fill="rgba(255,255,255,0.05)" stroke="rgba(255,255,255,0.08)" stroke-width="1"/>
  <text x="276" y="32" font-size="13" fill="rgba(255,255,255,0.35)">Search docs…</text>
  <!-- cta -->
  <rect x="1132" y="13" width="132" height="30" rx="8" fill="#1B4FD8"/>
  <text x="1198" y="33" font-size="13" fill="white" font-weight="600" text-anchor="middle">Start free trial</text>
    <rect x="0" y="56" width="1280" height="744" rx="0" fill="#080E1A"/>

    <!-- left field panel -->
    <rect x="240" y="56" width="220" height="744" rx="0" fill="#0A1422"/>
    <rect x="459" y="56" width="1" height="744" fill="rgba(255,255,255,0.08)"/>
    <text x="252" y="84" font-size="12" fill="rgba(255,255,255,0.35)" font-weight="700" text-anchor="start">Fields</text>
    <rect x="248" y="104" width="204" height="44" rx="8" fill="rgba(27,79,216,0.25)" stroke="#1B4FD8" stroke-width="1"/>
      <text x="260" y="121" font-size="12" fill="white" font-weight="600" text-anchor="start">Full Legal Name</text>
      <text x="260" y="136" font-size="10" fill="#5B8DEF" font-weight="normal" text-anchor="start">text</text>
      <rect x="416" y="117" width="30" height="18" rx="4" fill="rgba(34,197,94,0.15)"/><text x="431" y="130.5" font-size="11" fill="#22c55e" font-weight="600" text-anchor="middle">✓</text>
<rect x="248" y="156" width="204" height="44" rx="8" fill="rgba(255,255,255,0.03)" stroke="none" stroke-width="1"/>
      <text x="260" y="173" font-size="12" fill="rgba(255,255,255,0.55)" font-weight="normal" text-anchor="start">Date of Birth</text>
      <text x="260" y="188" font-size="10" fill="rgba(255,255,255,0.35)" font-weight="normal" text-anchor="start">date</text>
      <rect x="416" y="169" width="30" height="18" rx="4" fill="rgba(34,197,94,0.15)"/><text x="431" y="182.5" font-size="11" fill="#22c55e" font-weight="600" text-anchor="middle">✓</text>
<rect x="248" y="208" width="204" height="44" rx="8" fill="rgba(255,255,255,0.03)" stroke="none" stroke-width="1"/>
      <text x="260" y="225" font-size="12" fill="rgba(255,255,255,0.55)" font-weight="normal" text-anchor="start">SSN / Tax ID</text>
      <text x="260" y="240" font-size="10" fill="rgba(255,255,255,0.35)" font-weight="normal" text-anchor="start">text</text>
      <rect x="416" y="221" width="30" height="18" rx="4" fill="rgba(34,197,94,0.15)"/><text x="431" y="234.5" font-size="11" fill="#22c55e" font-weight="600" text-anchor="middle">✓</text>
<rect x="248" y="260" width="204" height="44" rx="8" fill="rgba(255,255,255,0.03)" stroke="none" stroke-width="1"/>
      <text x="260" y="277" font-size="12" fill="rgba(255,255,255,0.55)" font-weight="normal" text-anchor="start">Email Address</text>
      <text x="260" y="292" font-size="10" fill="rgba(255,255,255,0.35)" font-weight="normal" text-anchor="start">email</text>
      <rect x="416" y="273" width="30" height="18" rx="4" fill="rgba(34,197,94,0.15)"/><text x="431" y="286.5" font-size="11" fill="#22c55e" font-weight="600" text-anchor="middle">✓</text>
<rect x="248" y="312" width="204" height="44" rx="8" fill="rgba(255,255,255,0.03)" stroke="none" stroke-width="1"/>
      <text x="260" y="329" font-size="12" fill="rgba(255,255,255,0.55)" font-weight="normal" text-anchor="start">Phone Number</text>
      <text x="260" y="344" font-size="10" fill="rgba(255,255,255,0.35)" font-weight="normal" text-anchor="start">text</text>
      
<rect x="248" y="364" width="204" height="44" rx="8" fill="rgba(255,255,255,0.03)" stroke="none" stroke-width="1"/>
      <text x="260" y="381" font-size="12" fill="rgba(255,255,255,0.55)" font-weight="normal" text-anchor="start">Annual Income</text>
      <text x="260" y="396" font-size="10" fill="rgba(255,255,255,0.35)" font-weight="normal" text-anchor="start">number</text>
      
<rect x="248" y="416" width="204" height="44" rx="8" fill="rgba(255,255,255,0.03)" stroke="none" stroke-width="1"/>
      <text x="260" y="433" font-size="12" fill="rgba(255,255,255,0.55)" font-weight="normal" text-anchor="start">Account Type</text>
      <text x="260" y="448" font-size="10" fill="rgba(255,255,255,0.35)" font-weight="normal" text-anchor="start">radio</text>
      <rect x="416" y="429" width="30" height="18" rx="4" fill="rgba(34,197,94,0.15)"/><text x="431" y="442.5" font-size="11" fill="#22c55e" font-weight="600" text-anchor="middle">✓</text>

    <!-- PDF canvas -->
    <rect x="468" y="56" width="596" height="744" rx="0" fill="#0D1525"/>
    <rect x="488" y="76" width="556" height="704" rx="4" fill="white"/>

    <!-- PDF content lines -->
    <rect x="508" y="96" width="200" height="2" rx="1" fill="#e5e7eb"/>
    <rect x="508" y="108" width="140" height="2" rx="1" fill="#e5e7eb"/>
    <text x="508" y="134" font-size="9" fill="#6b7280" font-weight="700" text-anchor="start">CLIENT INFORMATION</text>
    <rect x="508" y="140" width="516" height="1" rx="0" fill="#e5e7eb"/>

    <text x="508" y="160" font-size="9" fill="#374151" font-weight="normal" text-anchor="start">Full Legal Name:</text>
    <rect x="508" y="164" width="280" height="24" rx="3" fill="#eff6ff" stroke="#3b82f6" stroke-width="1.5"/>
    <text x="648" y="181" font-size="10" fill="#1d4ed8" text-anchor="middle">Full Legal Name</text>

    <text x="508" y="204" font-size="9" fill="#374151" font-weight="normal" text-anchor="start">Date of Birth:</text>
    <rect x="508" y="208" width="120" height="20" rx="3" fill="#fafafa" stroke="#d1d5db" stroke-width="1"/>

    <text x="648" y="204" font-size="9" fill="#374151" font-weight="normal" text-anchor="start">SSN:</text>
    <rect x="648" y="208" width="140" height="20" rx="3" fill="#fafafa" stroke="#d1d5db" stroke-width="1"/>

    <text x="508" y="244" font-size="9" fill="#374151" font-weight="normal" text-anchor="start">Email Address:</text>
    <rect x="508" y="248" width="280" height="20" rx="3" fill="#fafafa" stroke="#d1d5db" stroke-width="1"/>

    <text x="508" y="284" font-size="9" fill="#374151" font-weight="normal" text-anchor="start">Account Type:</text>
    <rect x="508" y="292" width="12" height="12" rx="2" fill="white" stroke="#9ca3af" stroke-width="1"/>
    <text x="524" y="302" font-size="9" fill="#374151" font-weight="normal" text-anchor="start">Individual</text>
    <rect x="578" y="292" width="12" height="12" rx="2" fill="#1d4ed8"/>
    <text x="594" y="302" font-size="9" fill="#374151" font-weight="normal" text-anchor="start">Joint</text>
    <rect x="628" y="292" width="12" height="12" rx="2" fill="white" stroke="#9ca3af" stroke-width="1"/>
    <text x="644" y="302" font-size="9" fill="#374151" font-weight="normal" text-anchor="start">Trust</text>

    <!-- selected field bounding box -->
    <rect x="506" y="163" width="284" height="26" rx="3" fill="none" stroke="#1B4FD8" stroke-width="2"/>
    <!-- corner handles -->
    <rect x="502" y="159" width="8" height="8" rx="2" fill="#1B4FD8" stroke="white" stroke-width="1"/><rect x="786" y="159" width="8" height="8" rx="2" fill="#1B4FD8" stroke="white" stroke-width="1"/><rect x="502" y="185" width="8" height="8" rx="2" fill="#1B4FD8" stroke="white" stroke-width="1"/><rect x="786" y="185" width="8" height="8" rx="2" fill="#1B4FD8" stroke="white" stroke-width="1"/>

    <!-- right panel -->
    <rect x="1080" y="56" width="200" height="744" rx="0" fill="#0A1422"/>
    <rect x="1080" y="56" width="1" height="744" fill="rgba(255,255,255,0.08)"/>
    <text x="1092" y="84" font-size="12" fill="rgba(255,255,255,0.35)" font-weight="700" text-anchor="start">Mapping Options</text>
    <text x="1092" y="110" font-size="11" fill="rgba(255,255,255,0.35)" font-weight="normal" text-anchor="start">Font size</text>
    <rect x="1092" y="116" width="80" height="28" rx="6" fill="#111827" stroke="rgba(255,255,255,0.08)" stroke-width="1"/>
    <text x="1132" y="134" font-size="12" fill="rgba(255,255,255,0.85)" font-weight="normal" text-anchor="middle">11 pt</text>
    <text x="1092" y="160" font-size="11" fill="rgba(255,255,255,0.35)" font-weight="normal" text-anchor="start">Alignment</text>
    <rect x="1092" y="166" width="36" height="28" rx="6" fill="#1B4FD8" stroke="rgba(255,255,255,0.08)" stroke-width="1"/>
    <text x="1110" y="184" font-size="11" fill="white" font-weight="600" text-anchor="middle">L</text><rect x="1132" y="166" width="36" height="28" rx="6" fill="#111827" stroke="rgba(255,255,255,0.08)" stroke-width="1"/>
    <text x="1150" y="184" font-size="11" fill="rgba(255,255,255,0.35)" font-weight="600" text-anchor="middle">C</text><rect x="1172" y="166" width="36" height="28" rx="6" fill="#111827" stroke="rgba(255,255,255,0.08)" stroke-width="1"/>
    <text x="1190" y="184" font-size="11" fill="rgba(255,255,255,0.35)" font-weight="600" text-anchor="middle">R</text>
    <text x="1092" y="212" font-size="11" fill="rgba(255,255,255,0.35)" font-weight="normal" text-anchor="start">Transform</text>
    <rect x="1092" y="218" width="172" height="28" rx="6" fill="#111827" stroke="rgba(255,255,255,0.08)" stroke-width="1"/>
    <text x="1178" y="236" font-size="12" fill="rgba(255,255,255,0.85)" font-weight="normal" text-anchor="middle">None</text>
    <rect x="1092" y="656" width="172" height="36" rx="8" fill="#1B4FD8"/>
    <text x="1178" y="678" font-size="13" fill="white" font-weight="600" text-anchor="middle">Save mapping</text>
  
</svg>