<svg xmlns="http://www.w3.org/2000/svg" width="1280" height="800" viewBox="0 0 1280 800">
  <defs>
    <style>
      text { font-family: -apple-system, BlinkMacSystemFont, 'Segoe UI', sans-serif; }
    </style>
  </defs>
  <rect width="1280" height="800" fill="#080E1A"/>
  
    <rect x="0" y="0" width="1280" height="56" rx="0" fill="#080E1A"/>
  <rect x="0" y="55" width="1280" height="1" fill="rgba(255,255,255,0.08)"/>
  <!-- logo -->
  <rect x="16" y="14" width="28" height="28" rx="7" fill="#1B4FD8"/>
  <text x="50" y="34" font-size="15" fill="white" font-weight="700">Docuplete</text>
  <rect x="126" y="18" width="38" height="20" rx="4" fill="rgba(255,255,255,0.08)"/>
  <text x="145" y="32" font-size="10" fill="rgba(255,255,255,0.4)" font-weight="600" text-anchor="middle">Docs</text>
  <!-- search -->
  <rect x="256" y="12" width="320" height="32" rx="8" fill="rgba(255,255,255,0.05)" stroke="rgba(255,255,255,0.08)" stroke-width="1"/>
  <text x="276" y="32" font-size="13" fill="rgba(255,255,255,0.35)">Search docs…</text>
  <!-- cta -->
  <rect x="1132" y="13" width="132" height="30" rx="8" fill="#1B4FD8"/>
  <text x="1198" y="33" font-size="13" fill="white" font-weight="600" text-anchor="middle">Start free trial</text>
    <rect x="0" y="56" width="1280" height="744" rx="0" fill="#080E1A"/>
    <rect x="0" y="56" width="240" height="744" rx="0" fill="#0A1120"/>
  <rect x="239" y="56" width="1" height="744" fill="rgba(255,255,255,0.08)"/><text x="16" y="84" font-size="12" fill="rgba(255,255,255,0.55)" font-weight="700">Getting Started</text><text x="20" y="117" font-size="12" fill="rgba(255,255,255,0.35)" font-weight="normal">What is Docuplete?</text><text x="20" y="145" font-size="12" fill="rgba(255,255,255,0.35)" font-weight="normal">Quick Start</text><text x="20" y="173" font-size="12" fill="rgba(255,255,255,0.35)" font-weight="normal">Plans</text><text x="16" y="196" font-size="12" fill="rgba(255,255,255,0.55)" font-weight="700">Building a Package</text><rect x="8" y="212" width="224" height="26" rx="8" fill="rgba(27,79,216,0.2)"/><text x="20" y="229" font-size="12" fill="#5B8DEF" font-weight="600">Uploading a PDF</text><text x="20" y="257" font-size="12" fill="rgba(255,255,255,0.35)" font-weight="normal">Adding &amp; Editing Fields</text><text x="20" y="285" font-size="12" fill="rgba(255,255,255,0.35)" font-weight="normal">Visual Mapper</text><text x="20" y="313" font-size="12" fill="rgba(255,255,255,0.35)" font-weight="normal">E-Sign Fields</text><text x="20" y="341" font-size="12" fill="rgba(255,255,255,0.35)" font-weight="normal">Single-line vs. Multiline</text><text x="16" y="364" font-size="12" fill="rgba(255,255,255,0.55)" font-weight="700">Batch CSV Import</text><text x="20" y="397" font-size="12" fill="rgba(255,255,255,0.35)" font-weight="normal">When to Use Batch</text><text x="20" y="425" font-size="12" fill="rgba(255,255,255,0.35)" font-weight="normal">Downloading Template</text><text x="20" y="453" font-size="12" fill="rgba(255,255,255,0.35)" font-weight="normal">Filling Out CSV</text><text x="20" y="481" font-size="12" fill="rgba(255,255,255,0.35)" font-weight="normal">Uploading &amp; Results</text><text x="20" y="509" font-size="12" fill="rgba(255,255,255,0.35)" font-weight="normal">Understanding Errors</text><text x="16" y="532" font-size="12" fill="rgba(255,255,255,0.55)" font-weight="700">Sessions Dashboard</text><text x="20" y="565" font-size="12" fill="rgba(255,255,255,0.35)" font-weight="normal">Interviews Tab</text><text x="20" y="593" font-size="12" fill="rgba(255,255,255,0.35)" font-weight="normal">Batch Runs Tab</text><text x="16" y="616" font-size="12" fill="rgba(255,255,255,0.55)" font-weight="700">Sending to Clients</text><text x="20" y="649" font-size="12" fill="rgba(255,255,255,0.35)" font-weight="normal">Generating a Session</text><text x="20" y="677" font-size="12" fill="rgba(255,255,255,0.35)" font-weight="normal">Client Experience</text><text x="20" y="705" font-size="12" fill="rgba(255,255,255,0.35)" font-weight="normal">E-Sign Verification</text><text x="16" y="728" font-size="12" fill="rgba(255,255,255,0.55)" font-weight="700">Account &amp; Settings</text><text x="20" y="761" font-size="12" fill="rgba(255,255,255,0.35)" font-weight="normal">API Keys</text><text x="20" y="789" font-size="12" fill="rgba(255,255,255,0.35)" font-weight="normal">Branding</text>

    <!-- dimmed overlay -->
    <rect x="240" y="56" width="1040" height="744" fill="rgba(0,0,0,0.5)"/>

    <!-- modal -->
    <rect x="400" y="180" width="480" height="440" rx="16" fill="#111827" stroke="rgba(255,255,255,0.12)" stroke-width="1"/>
    <text x="640" y="212" font-size="18" fill="rgba(255,255,255,0.85)" font-weight="700" text-anchor="middle">Upload PDF</text>
    <text x="640" y="234" font-size="13" fill="rgba(255,255,255,0.55)" font-weight="normal" text-anchor="middle">Add a document to this package</text>
    <rect x="420" y="248" width="440" height="1" fill="rgba(255,255,255,0.08)"/>

    <!-- drop zone -->
    <rect x="440" y="264" width="400" height="172" rx="12" fill="rgba(27,79,216,0.06)" stroke="#5B8DEF" stroke-width="1.5" stroke-dasharray="6,4"/>
    <text x="640" y="336" font-size="40" text-anchor="middle">📄</text>
    <text x="640" y="376" font-size="15" fill="rgba(255,255,255,0.85)" font-weight="600" text-anchor="middle">Drag &amp;amp; drop your PDF here</text>
    <text x="640" y="396" font-size="13" fill="rgba(255,255,255,0.35)" font-weight="normal" text-anchor="middle">or</text>
    <rect x="580" y="412" width="120" height="32" rx="8" fill="#1B4FD8"/>
    <text x="640" y="432" font-size="13" fill="white" font-weight="600" text-anchor="middle">Choose file</text>

    <text x="640" y="456" font-size="11" fill="rgba(255,255,255,0.35)" font-weight="normal" text-anchor="middle">PDF up to 50 MB</text>

    <!-- password field -->
    <rect x="440" y="452" width="400" height="1" fill="rgba(255,255,255,0.08)"/>
    <text x="440" y="472" font-size="12" fill="rgba(255,255,255,0.35)" font-weight="600" text-anchor="start">Password (if protected)</text>
    <rect x="440" y="484" width="400" height="36" rx="8" fill="#111827" stroke="rgba(255,255,255,0.08)" stroke-width="1"/>
    <text x="456" y="507" font-size="12" fill="rgba(255,255,255,0.35)" font-weight="normal" text-anchor="start">Leave blank if not password-protected</text>

    <!-- actions -->
    <rect x="440" y="536" width="192" height="40" rx="8" fill="#111827" stroke="rgba(255,255,255,0.08)" stroke-width="1"/>
    <text x="536" y="560" font-size="13" fill="rgba(255,255,255,0.55)" font-weight="600" text-anchor="middle">Cancel</text>
    <rect x="648" y="536" width="192" height="40" rx="8" fill="#1B4FD8"/>
    <text x="744" y="560" font-size="13" fill="white" font-weight="600" text-anchor="middle">Upload PDF</text>
  
</svg>